<svg xmlns="http://www.w3.org/2000/svg" viewBox="0 0 331.3485 68.74427"><defs><style>.cls-1,.cls-2{fill:none;}.cls-2{stroke:#000;stroke-miterlimit:10;}</style></defs><title>Barre_fumi</title><g id="Calque_2" data-name="Calque 2"><g id="Calque_7" data-name="Calque 7"><path class="cls-1" d="M16.00363,53.20618a11.4221,11.4221,0,0,0,7.90674,3.27509c45.87189,2.10437,93.75018,3.27832,143.4884,3.253,48.60688-.02472,95.43232-1.19293,140.33948-3.253a11.18185,11.18185,0,0,0,11.18183-11.18183V27.694a12.56154,12.56154,0,0,0-3.27509-7.9068,12.60531,12.60531,0,0,0-7.90674-3.275c-13.383-1.25866-125.82983.29517-141.36072.32843-17.77179.03809-129.24847-1.442-142.46716-.32843a12.46612,12.46612,0,0,0-7.68506,3.05939A12.73253,12.73253,0,0,0,12.72855,27.694v17.6054A11.14686,11.14686,0,0,0,16.00363,53.20618Z"/><path class="cls-2" d="M326.68381,38.05433a9.20056,9.20056,0,0,1-7.76373.23315v7.012a11.18185,11.18185,0,0,1-11.18183,11.18183c-44.90716,2.06012-91.7326,3.22833-140.33948,3.253-49.73822.02527-97.61651-1.14868-143.4884-3.253a11.4221,11.4221,0,0,1-7.90674-3.27509,11.14686,11.14686,0,0,1-3.27508-7.90674v-6.6715a8.95467,8.95467,0,0,1-6.76355.01562,8.868,8.868,0,0,1-4.43854-4.185v17.3263a12,12,0,0,0,12,12c48.27893,2.82971,99.31244,4.47076,152.851,4.45935,53.13312-.01129,103.79608-1.649,151.74475-4.45935a12.25763,12.25763,0,0,0,8.48529-3.51477,11.96241,11.96241,0,0,0,3.51471-8.48523V34.45856A8.53067,8.53067,0,0,1,326.68381,38.05433Z"/><path class="cls-2" d="M328.45981,18.90534a21.77315,21.77315,0,0,0-10.33759-9.69678,1336.07012,1336.07012,0,0,0-304.59576,0A20.39374,20.39374,0,0,0,2.97324,18.2024,20.7755,20.7755,0,0,0,1.52646,34.45856a8.868,8.868,0,0,0,4.43854,4.185,8.95467,8.95467,0,0,0,6.76355-.01562V27.694a12.73253,12.73253,0,0,1,3.49676-8.12244,12.46612,12.46612,0,0,1,7.68506-3.05939c13.21869-1.11358,124.69537.36652,142.46716.32843,15.53089-.03326,127.97773-1.58709,141.36072-.32843a12.60531,12.60531,0,0,1,7.90674,3.275,12.56154,12.56154,0,0,1,3.27509,7.9068V38.28748a9.20056,9.20056,0,0,0,7.76373-.23315,8.53067,8.53067,0,0,0,3.43841-3.59577A21.93606,21.93606,0,0,0,328.45981,18.90534Zm-162.44287-5.9007c-4.29224,0-7.77185-2.18536-7.77185-4.8811s3.47961-4.8811,7.77185-4.8811,7.77191,2.18536,7.77191,4.8811S170.30924,13.00464,166.01694,13.00464Z"/></g></g></svg>