<svg xmlns="http://www.w3.org/2000/svg" viewBox="0 0 36.17968 32.58854"><defs><style>.cls-1{fill:#798085;}.cls-1,.cls-3,.cls-4{stroke:#000;stroke-miterlimit:10;}.cls-1,.cls-2,.cls-3,.cls-4{stroke-width:0.30741px;}.cls-2{fill:#b2aa87;stroke:#1d1d1b;stroke-linejoin:round;}.cls-3{fill:#e2e2e1;}.cls-4{fill:#484849;}</style></defs><title>Bombe_fumi</title><g id="Calque_2" data-name="Calque 2"><g id="Calque_9" data-name="Calque 9"><circle class="cls-1" cx="16.48252" cy="16.15141" r="15.30512"/><path class="cls-2" d="M22.83848,2.22921A11.49064,11.49064,0,0,1,30.53184.21838,11.21382,11.21382,0,0,1,36.026,2.416l-.43366,2.79212a8.62431,8.62431,0,0,0-3.79955-1.71923,8.7948,8.7948,0,0,0-5.55216.87188Z"/><path class="cls-2" d="M26.86073.44269a2.63027,2.63027,0,0,1,1.20557.96078,2.75565,2.75565,0,0,1,.34892,2.16287l-2.17462.79447-3.40212-2.1316A8.97329,8.97329,0,0,1,26.86073.44269Z"/><path class="cls-2" d="M31.83043.44269a10.877,10.877,0,0,0-4.9697,0,2.71563,2.71563,0,0,1,1.49961,1.522,2.62108,2.62108,0,0,1,.05488,1.6016,12.80463,12.80463,0,0,1,3.75351,0,2.594,2.594,0,0,0,.37763-1.28765A2.69936,2.69936,0,0,0,31.83043.44269Z"/><path class="cls-3" d="M2.74307,9.40405l29.03049,6.11579a2.41873,2.41873,0,0,1,.73117,1.87083,2.0879,2.0879,0,0,1-.83588,1.21276c-.75549.62967-1.6138,1.99331-1.96509,5.25932L1.17739,18.34812c.1475-3.17868.227-4.89174.227-4.89176h0a13.18032,13.18032,0,0,1,.14295-1.96994A4.19417,4.19417,0,0,1,2.74307,9.40405Z"/><path class="cls-3" d="M30.39831,8.646a5.07966,5.07966,0,0,0-1.34137-1.22028l-.87976-1.24231L6.96344,22.46057a1.48494,1.48494,0,0,1-2.34369,1.79828l-.74408.57092a3.803,3.803,0,0,0,1.24609,2.10346,4.41535,4.41535,0,0,0,1.12653.59778,7.52527,7.52527,0,0,1,2.6394,2.05114q10.90293-9.56,21.80591-19.12A2.55229,2.55229,0,0,0,30.39831,8.646Z"/><path class="cls-3" d="M23.26007,28.99994a1.13832,1.13832,0,0,1-1.13831-1.13831,1.12146,1.12146,0,0,1,.562-.959Q18.60337,13.93662,14.523.97064a3.165,3.165,0,0,0-3.8548,1.02027l5.81433,29.46563a9.42175,9.42175,0,0,1,4.27759-.6297,3.01008,3.01008,0,0,0,1.75531-.19146,2.74562,2.74562,0,0,0,1.0545-.91712L23.3388,28.984C23.3114,28.986,23.288,28.99994,23.26007,28.99994Z"/><path class="cls-4" d="M31.61916,18.426a43.20735,43.20735,0,0,0-6.54266-6.83861,1.22695,1.22695,0,1,1-1.92323-1.51567A43.54059,43.54059,0,0,0,8.63048,3.01161a5.5696,5.5696,0,0,0-4.7548,4.46081c.58208.22684,1.19825.47975,1.83846.75547a1.62149,1.62149,0,0,1,1.32368-.37c.38506.08241.96134.3801,1.02034.883a.856.856,0,0,1-.11192.50683,56.6068,56.6068,0,0,1,9.39964,5.72642A56.57879,56.57879,0,0,1,24.152,21.00717a2.227,2.227,0,0,1,1.715.63511c.78372.61626,1.21176,1.37946.956,1.70466a.49056.49056,0,0,1-.42406.13969c.71023.83245,1.349,1.62872,1.91646,2.37138A6.21666,6.21666,0,0,0,31.61916,18.426Z"/><path class="cls-4" d="M21.58423,14.50316a85.366,85.366,0,0,0-.79608-8.82211.98413.98413,0,0,1-.43357.10343.99456.99456,0,1,1,.14382-1.97386c-.14506-.877-.2975-1.7307-.45815-2.548A5.19626,5.19626,0,0,0,14.523.97062a63.82708,63.82708,0,0,1,1.568,14.29294,1.16514,1.16514,0,0,1-.051,2.3274,63.88848,63.88848,0,0,1-1.33148,10.65426.84257.84257,0,1,1-.34278,1.52874c-.12151.51185-.24514,1.00648-.36978,1.48049a4.73992,4.73992,0,0,0,6.63393-.3668A85.5326,85.5326,0,0,0,21.58423,14.50316Z"/><path class="cls-4" d="M25.56568,11.31787c.0166-.86743,1.04026-1.295,1.295-1.295a1.28914,1.28914,0,0,1,.51279.10648q.88394-1.37862,1.68344-2.70356A10.50063,10.50063,0,0,0,26.2406,4.36081a79.6048,79.6048,0,0,1-8.10983,11.65978c-1.72485,2.05935-3.44912,3.9053-5.12047,5.55325a3.22307,3.22307,0,0,1-.84461,2.24321,2.51568,2.51568,0,0,1-1.7529.85681,2.01218,2.01218,0,0,1-.6159-.09869c-1.22977,1.086-2.41967,2.06968-3.54859,2.95583a3.76207,3.76207,0,0,0,4.66949,2.88161A117.41864,117.41864,0,0,0,20.79936,19.3694c1.91747-2.4363,3.63224-4.818,5.17432-7.11213A1.351,1.351,0,0,1,25.56568,11.31787Z"/><path class="cls-4" d="M32.23241,12.16814a2.55347,2.55347,0,0,0-1.53882-1.706,81.21463,81.21463,0,0,1-18.84184,3.15148,80.78043,80.78043,0,0,1-10.43367-.18025,5.10623,5.10623,0,0,0,.40948,7.14414c.216-.00674.43948-.01741.6588-.02587a1.44778,1.44778,0,0,1,2.88639-.15877,88.54724,88.54724,0,0,0,9.14758-1.12812,88.89769,88.89769,0,0,0,17.09883-4.82995A2.56444,2.56444,0,0,0,32.23241,12.16814Z"/></g></g></svg>