<svg xmlns="http://www.w3.org/2000/svg" viewBox="0 0 78.66964 78.66964"><defs><style>.cls-1{fill:none;}.cls-1,.cls-2,.cls-3{stroke:#1d1d1b;stroke-miterlimit:10;}.cls-2{fill:#7a8085;}.cls-3{fill:#a2a9ae;}</style></defs><title>bouton_fumi</title><g id="Calque_2" data-name="Calque 2"><g id="Calque_11" data-name="Calque 11"><rect class="cls-1" x="0.5" y="0.5" width="77.66964" height="77.66964" rx="5"/><path class="cls-1" d="M70.70775,75.344H7.96188a4.63619,4.63619,0,0,0-4.63619-4.6362V7.96188A4.63619,4.63619,0,0,0,7.96188,3.32569H70.70775A4.63619,4.63619,0,0,0,75.344,7.96188V70.70775A4.6362,4.6362,0,0,0,70.70775,75.344Z"/><path class="cls-2" d="M23.93835,33.7212c-6.71256-1.46867-10.56271-6.48223-9.91816-10.46162.45323-2.7982,3.04228-4.55039,4.03067-5.14778a6.58464,6.58464,0,0,1,.785-6.6423c2.05216-2.43253,6.28356-2.87719,9.48037-.42269A6.68522,6.68522,0,0,1,35.7806,6.27867a6.57608,6.57608,0,0,1,5.03522,5.372,7.71847,7.71847,0,0,1,14.55267-.66423A7.75816,7.75816,0,0,1,61.89,13.583a7.40575,7.40575,0,0,1,.72461,8.09153,9.81825,9.81825,0,0,1,4.04577,9.11806A10.3441,10.3441,0,0,1,61.105,38.46138a3.90582,3.90582,0,0,0-5.61577-4.40807,9.97376,9.97376,0,0,1-2.2946,2.77769,10.50163,10.50163,0,0,1-6.28,2.355,5.86,5.86,0,0,0-4.16654,1.63038,6.00961,6.00961,0,0,0-1.02653,6.58192,4.7544,4.7544,0,0,1,2.77769,2.71729,4.82983,4.82983,0,0,1-.54346,4.22692,8.81211,8.81211,0,0,0-4.89115,9.29922,5.56659,5.56659,0,0,1,1.32845,1.69077c1.60831,3.18437-.60456,6.80452-.84537,7.18575a6.41058,6.41058,0,0,0-2.71731-3.68345,6.03517,6.03517,0,0,0-2.47577-.84539c-2.55088-1.39541-4.0575-3.82261-3.80421-6.15922a5.308,5.308,0,0,1,1.20768-2.76168A11.08992,11.08992,0,0,0,35.502,52.16867a10.7702,10.7702,0,0,0-.84538-5.61576c-.46328-.2791-6.32878-3.9347-6.21961-9.84268a9.4765,9.4765,0,0,1,1.08692-4.16653,4.73789,4.73789,0,0,0,1.93231-3.62307A4.56946,4.56946,0,0,0,30.24853,25.841c-.47029-.2882-2.45216-1.43515-4.22691-.72462C23.76587,26.01951,22.36473,29.71515,23.93835,33.7212Z"/><path class="cls-3" d="M42.50659,18.95718A4.64518,4.64518,0,0,1,44.99745,15.787a4.52582,4.52582,0,0,1,5.027,1.08692,2.86485,2.86485,0,0,1,1.36637,2.582,2.80468,2.80468,0,0,1-.88376,1.79694,2.56812,2.56812,0,0,0-.9355,4.13531,4.6272,4.6272,0,0,1,2.17384,2.53615,4.75866,4.75866,0,0,1-.54345,3.98537,8.42924,8.42924,0,0,1-6.97441,4.25711,6.46212,6.46212,0,0,0-5.0723,5.79692,17.71152,17.71152,0,0,1,0-6.88384,17.37378,17.37378,0,0,1,.99634-3.26076,3.171,3.171,0,0,0-.99634-3.1249,3.33614,3.33614,0,0,0-4.48356.67932,5.8092,5.8092,0,0,1,2.038-4.75528,5.44162,5.44162,0,0,1,3.53409-1.09486A3.61272,3.61272,0,0,0,42.62,21.34705,3.41111,3.41111,0,0,0,42.50659,18.95718Z"/><path class="cls-3" d="M38.18916,49.21445c.161-1.68116.86184-2.74166,1.419-2.72192.47381.01678.93682.81817,1.17748,1.81153a3.81891,3.81891,0,0,1,1.26809,2.80788,3.72248,3.72248,0,0,1-.90577,2.355,12.77822,12.77822,0,0,0-3.98538,8.2425A10.12986,10.12986,0,0,1,36.70967,57.09c.25189-1.72632.89588-2.624,1.26808-4.98172A17.37236,17.37236,0,0,0,38.18916,49.21445Z"/></g></g></svg>