<svg xmlns="http://www.w3.org/2000/svg" viewBox="0 0 78.58324 78.58324"><defs><style>.cls-1,.cls-2{fill:#fff;stroke:#1d1d1b;stroke-miterlimit:10;}.cls-1{stroke-width:0.9136px;}.cls-2{stroke-width:0.89888px;}</style></defs><title>Dash</title><g id="Calque_2" data-name="Calque 2"><g id="Calque_2-2" data-name="Calque 2"><rect class="cls-1" x="0.4568" y="0.4568" width="77.66964" height="77.66964" rx="20.52673"/></g><g id="Calque_6" data-name="Calque 6"><path class="cls-2" d="M64.2843,60.9611a105.0313,105.0313,0,0,1-21.48519,0c-4.52554-.53042-6.67781-1.23553-10.34835-.33211-2.88683.71054-5.23058,2.05123-8.51838,1.31053a10.61531,10.61531,0,0,1-4.09677-1.97474,16.02319,16.02319,0,0,0-1.774-5.3137c-1.72268-3.107-3.62222-3.788-5.322-6.08862-1.23481-1.6713-2.57944-4.48864-2.661-9.40969a4.9203,4.9203,0,0,1,.29565-6.31,3.67618,3.67618,0,0,1,5.17639.05036q1.50189,6.28483,3.00376,12.56969l4.82923,5.97791,9.06715,3.65317a100.19674,100.19674,0,0,0,12.22092,3.54247A98.4074,98.4074,0,0,0,64.2843,60.9611Z"/><path class="cls-2" d="M24.26611,10.16079a25.33732,25.33732,0,0,1,3.11794,5.2424,29.37073,29.37073,0,0,1,2.3348,13.32092,4.31633,4.31633,0,0,1,1.66573-2.90753,3.191,3.191,0,0,1,2.877.04286c3.79346,1.49728,6.75878,5.75521,9.07348,8.114a20.3081,20.3081,0,0,0,9.79032,5.41681q-.54507-2.65965.28576-3.42371,1.6221-1.49195,8.48865,4.241l7.606,4.90667a94.88667,94.88667,0,0,1-16.96269-1.78093q-2.4708-.48768-4.79134-1.07581c-1.03733-1.36147-5.00609-6.233-10.94765-6.23871a11.40511,11.40511,0,0,0-3.47161.549,4.12926,4.12926,0,0,1-2.841.54435c-1.87691-.38321-3.37417-2.31628-3.72825-4.86825a13.174,13.174,0,0,1-6.17078-7.50951,15.77459,15.77459,0,0,1-.24379-8.74091c-.80775-2.69086.03709-5.20774,1.47679-5.947A2.8181,2.8181,0,0,1,24.26611,10.16079Z"/></g></g></svg>