<svg xmlns="http://www.w3.org/2000/svg" viewBox="0 0 100.93163 55.84744"><defs><style>.cls-1{fill:none;stroke:#1d1d1b;stroke-miterlimit:10;stroke-width:2px;}</style></defs><title>fleche_retour</title><g id="Calque_2" data-name="Calque 2"><g id="Calque_3" data-name="Calque 3"><path class="cls-1" d="M95.21229,22.71917c-5.64479.84341-32.05663,1.54257-40.19956,1.54342A141.3047,141.3047,0,0,1,34.133,22.71917a19.40714,19.40714,0,0,1,7.18217-9.69061,28.54231,28.54231,0,0,1,7.43641-3.95587,2.99352,2.99352,0,0,0,.744-5.21347l-3.037-2.26437a2.99182,2.99182,0,0,0-3.75658.142C38.276,5.58238,30.98913,9.7781,25.43249,14.04983,17.70157,19.99306,9.02361,24.55874,2.39972,28.00588,8.42436,30.40273,17.741,34.34527,25.88908,40.603c6.14989,4.72313,13.054,9.435,16.84318,13.33038a2.99751,2.99751,0,0,0,3.94593.31977l3.81318-2.84306a2.99488,2.99488,0,0,0-.3837-5.05,54.523,54.523,0,0,1-8.33594-5.41666,45.13408,45.13408,0,0,1-7.63865-7.65075,141.53477,141.53477,0,0,1,21.33625-1.54075c7.92781.02622,34.17747.71039,39.743,1.54075,2.85234-.89008,4.7186-2.98023,4.71934-5.28541C99.93237,25.70113,98.06584,23.60961,95.21229,22.71917Z"/></g></g></svg>