<svg xmlns="http://www.w3.org/2000/svg" viewBox="0 0 76.99455 58.58816"><defs><style>.cls-1{fill:none;stroke:#1d1d1b;stroke-miterlimit:10;stroke-width:2px;}</style></defs><title>Flèche</title><g id="Calque_2" data-name="Calque 2"><g id="Calque_3" data-name="Calque 3"><path class="cls-1" d="M71.27521,23.96978A141.30026,141.30026,0,0,1,50.42569,25.5132a141.30481,141.30481,0,0,1-20.87976-1.54342,19.40726,19.40726,0,0,1,7.18217-9.69062A31.23147,31.23147,0,0,1,49.87493,8.81273Q44.861,5.07446,39.84715,1.33614a127.69373,127.69373,0,0,1-15.44689,13.9643A149.01933,149.01933,0,0,1,2.39972,29.25649,94.23427,94.23427,0,0,1,24.85685,41.85363a72.68536,72.68536,0,0,1,14.9903,15.32324q5.01389-3.73828,10.02778-7.47659a56.83371,56.83371,0,0,1-12.69024-7.50623A45.1341,45.1341,0,0,1,29.546,34.54329a141.97228,141.97228,0,0,1,41.72917,0c2.85234-.89007,4.7186-2.98022,4.71934-5.2854C75.99529,26.95174,74.12876,24.86022,71.27521,23.96978Z"/></g></g></svg>