<svg xmlns="http://www.w3.org/2000/svg" viewBox="0 0 75.39633 57.29658"><defs><style>.cls-1{fill:#fff;stroke:#1d1d1b;stroke-miterlimit:10;stroke-width:1.05979px;}</style></defs><title>Flèche</title><g id="Calque_2" data-name="Calque 2"><g id="Calque_3" data-name="Calque 3"><path class="cls-1" d="M70.14709,23.34165a141.30007,141.30007,0,0,1-20.84951,1.54343,141.30617,141.30617,0,0,1-20.87977-1.54343A19.40719,19.40719,0,0,1,35.6,13.651,31.23113,31.23113,0,0,1,48.74681,8.18461Q43.73293,4.44633,38.719.708A127.69374,127.69374,0,0,1,23.27214,14.67231,149.0185,149.0185,0,0,1,1.2716,28.62836,94.23389,94.23389,0,0,1,23.72873,41.2255,72.68558,72.68558,0,0,1,38.719,56.54874q5.01389-3.73827,10.02778-7.47659a56.83384,56.83384,0,0,1-12.69024-7.50622,45.13435,45.13435,0,0,1-7.63864-7.65076,141.97221,141.97221,0,0,1,41.72916,0c2.85234-.89008,4.71861-2.98023,4.71934-5.2854C74.86717,26.32362,73.00064,24.23209,70.14709,23.34165Z"/></g></g></svg>