<svg xmlns="http://www.w3.org/2000/svg" viewBox="0 0 106.94167 134.93128"><defs><style>.cls-1{fill:#fff;stroke:#1d1d1b;stroke-miterlimit:10;}</style></defs><title>Liberation</title><g id="Calque_2" data-name="Calque 2"><g id="Calque_5" data-name="Calque 5"><path class="cls-1" d="M20.5489,55.84034C7.07491,52.89232-.65341,42.8287.64038,34.841c.90976-5.61678,6.10671-9.13392,8.09067-10.333C6.87456,19.817,7.39849,14.6223,10.30677,11.175c4.11924-4.88278,12.61286-5.77533,19.02976-.84846C31.43325,3.53215,38.11138-.46546,44.31962.7555a13.2,13.2,0,0,1,10.1071,10.78308A15.49312,15.49312,0,0,1,83.638,10.20528c.546-.06046,8.21335-.7764,13.09055,5.212a14.86538,14.86538,0,0,1,1.4545,16.242,19.708,19.708,0,0,1,8.121,18.3025c-1.26026,10.50316-10.55419,15.11053-11.1512,15.3935A7.84007,7.84007,0,0,0,83.88042,56.507a20.02043,20.02043,0,0,1-4.60593,5.5756A21.07964,21.07964,0,0,1,66.6688,66.80973a11.7627,11.7627,0,0,0-8.3634,3.27263,12.06293,12.06293,0,0,0-2.06055,13.21175,9.54349,9.54349,0,0,1,5.57561,5.45438,9.69481,9.69481,0,0,1-1.09088,8.48461,17.68832,17.68832,0,0,0-9.8179,18.66614,11.17369,11.17369,0,0,1,2.66657,3.39385c3.22832,6.39192-1.21353,13.65859-1.69691,14.42382a12.8679,12.8679,0,0,0-5.45439-7.39373,12.11422,12.11422,0,0,0-4.96956-1.69692c-5.12033-2.801-8.14454-7.67306-7.63613-12.36328a10.65469,10.65469,0,0,1,2.42416-5.54348,22.26048,22.26048,0,0,0,7.51493-13.8499,21.61888,21.61888,0,0,0-1.69691-11.27241c-.92994-.56024-12.70364-7.898-12.4845-19.757a19.02185,19.02185,0,0,1,2.18176-8.3634,9.51037,9.51037,0,0,0,3.87869-7.27252,9.17221,9.17221,0,0,0-2.42418-6.18164c-.944-.57849-4.92217-2.88075-8.48461-1.45451C20.2027,40.38089,17.39021,47.79908,20.5489,55.84034Z"/><path class="cls-1" d="M57.82056,26.20483a9.32428,9.32428,0,0,1,4.99986-6.36346,9.08463,9.08463,0,0,1,10.09063,2.18176,5.75055,5.75055,0,0,1,2.74268,5.18273,5.62971,5.62971,0,0,1-1.77395,3.607A5.15491,5.15491,0,0,0,72.002,39.11355a9.28819,9.28819,0,0,1,4.36351,5.09076,9.552,9.552,0,0,1-1.09086,7.99977A16.91978,16.91978,0,0,1,61.275,60.74929a12.97134,12.97134,0,0,0-10.18154,11.636,35.552,35.552,0,0,1,0-13.81779,34.87553,34.87553,0,0,1,1.99994-6.54527,6.36509,6.36509,0,0,0-1.99994-6.27255c-2.41392-1.91341-6.47745-1.53247-8.99974,1.3636-.03441-.50511-.3215-6.113,4.09079-9.54518a10.9229,10.9229,0,0,1,7.09391-2.1977,7.25179,7.25179,0,0,0,4.7697-4.36848A6.847,6.847,0,0,0,57.82056,26.20483Z"/><path class="cls-1" d="M49.15429,86.93965c.32315-3.37456,1.72994-5.50328,2.84827-5.46367.95108.0337,1.88048,1.6423,2.36355,3.63626a7.66559,7.66559,0,0,1,2.5454,5.6362,7.47212,7.47212,0,0,1-1.81813,4.72713,25.6495,25.6495,0,0,0-7.99977,16.545,20.33327,20.33327,0,0,1-.90908-9.27247c.50561-3.4652,1.79827-5.267,2.54538-9.9997A34.8696,34.8696,0,0,0,49.15429,86.93965Z"/></g></g></svg>