<svg xmlns="http://www.w3.org/2000/svg" viewBox="0 0 55.21821 55.21821"><defs><style>.cls-1,.cls-2{fill:#fff;stroke:#1d1d1b;stroke-miterlimit:10;}.cls-1{stroke-width:0.64196px;}.cls-2{stroke-width:0.71535px;}</style></defs><title>option</title><g id="Calque_2" data-name="Calque 2"><g id="Calque_4" data-name="Calque 4"><rect class="cls-1" x="0.32098" y="0.32098" width="54.57625" height="54.57625" rx="14.42355"/><polygon class="cls-2" points="48.351 23.489 37.555 23.489 45.189 15.856 39.362 10.029 31.729 17.663 31.729 6.868 23.489 6.868 23.489 17.663 15.856 10.029 10.029 15.856 17.663 23.489 6.868 23.489 6.868 31.729 17.663 31.729 10.029 39.362 15.856 45.189 23.489 37.555 23.489 48.351 31.729 48.351 31.729 37.555 39.362 45.189 45.189 39.362 37.555 31.729 48.351 31.729 48.351 23.489"/><circle class="cls-2" cx="27.6091" cy="27.60911" r="15.64967"/><circle class="cls-2" cx="27.6091" cy="27.60911" r="8.07621"/></g></g></svg>