<svg xmlns="http://www.w3.org/2000/svg" viewBox="0 0 594.03191 229.40426"><defs><style>.cls-1{fill:none;stroke:#1d1d1b;stroke-miterlimit:10;stroke-width:3px;}</style></defs><title>Fichier 1</title><g id="Calque_2" data-name="Calque 2"><g id="Calque_2-2" data-name="Calque 2"><rect class="cls-1" x="1.5" y="1.5" width="14.01064" height="39.19149" rx="7.00531"/><rect class="cls-1" x="578.52128" y="1.5" width="14.01064" height="39.19149" rx="7.00531"/><path class="cls-1" d="M166.30741,11.90422c-.34692-1.9668-.76245-3.7431-1.18951-5.27808a41.14492,41.14492,0,0,0-29.87238,0c-.27753.66816-.57721,1.45124-.87634,2.33551-.34845,1.03016-.63654,2.01478-.87293,2.94257a38.64816,38.64816,0,0,0-.23462,18.383q.992,3.10564,1.98389,6.2113c1.03613.2627,2.13092.51172,3.28174.73608,1.1803.23011,2.444.44019,3.7821.61615V51.90422h15.74469V37.853a60.73746,60.73746,0,0,0,7.06385-1.35449c.24359-.876.48553-1.83795.71362-2.87634.25476-1.1601.46258-2.27411.63013-3.335a59.99635,59.99635,0,0,0-.15424-18.383Z"/><path class="cls-1" d="M132.164,20.32335a34.92,34.92,0,0,1,1.33227-8.41913H15.28721v18.383H133.26163A34.95688,34.95688,0,0,1,132.164,20.32335Z"/><path class="cls-1" d="M578.52128,11.90422h-116.853a55.09128,55.09128,0,0,1,.15424,18.383H578.52128Z"/><path class="cls-1" d="M428.85709,11.90422H166.30741a55.09128,55.09128,0,0,1,.15424,18.383H428.62247a38.64816,38.64816,0,0,1,.23462-18.383Z"/><path class="cls-1" d="M428.85709,11.90422a39.42957,39.42957,0,0,1,1.74927-5.27808,41.14492,41.14492,0,0,1,29.87238,0c.42706,1.535.84259,3.31128,1.18951,5.27808a70.24384,70.24384,0,0,1,.15424,18.383c-.16752,1.06085-.37537,2.17486-.63016,3.335-.22806,1.03837-.47,2.0003-.71359,2.87631a60.73746,60.73746,0,0,1-7.06385,1.35449V51.90422H437.6702V37.85075c-1.33807-.176-2.6018-.386-3.7821-.61615-1.15082-.22436-2.24561-.47338-3.28174-.73608a39.05879,39.05879,0,0,1-1.98389-6.2113,34.63324,34.63324,0,0,1,.23462-18.383Z"/><path class="cls-1" d="M27.79787,51.90426H566.01064a0,0,0,0,1,0,0V125.857A102.04724,102.04724,0,0,1,463.96339,227.90426H131.58511A103.78723,103.78723,0,0,1,27.79787,124.117V51.90426a0,0,0,0,1,0,0Z"/></g></g></svg>