<svg xmlns="http://www.w3.org/2000/svg" viewBox="0 0 119.89111 120.91489"><defs><style>.cls-1{fill:none;stroke:#1d1d1b;stroke-linecap:round;stroke-linejoin:round;}</style></defs><title>Tresor</title><g id="Calque_2" data-name="Calque 2"><g id="Calque_2-2" data-name="Calque 2"><polygon class="cls-1" points="3.732 68.84 50.455 76.755 50.455 120.415 3.732 108.926 3.732 68.84"/><polygon class="cls-1" points="50.455 76.755 119.391 56.585 118.37 94.628 50.455 120.415 50.455 76.755"/><path class="cls-1" d="M57.71026,81.35106v28.59575l55.80852-19.693V64.75532Z"/><polygon class="cls-1" points="41.689 80.926 7.902 74.968 7.391 103.479 41.689 111.138 41.689 80.926"/><path class="cls-1" d="M85.61452,77.8617v9.48936l9.52127-3.3617q-.17021-4.383-.34043-8.766Z"/><polygon class="cls-1" points="119.391 56.585 73.434 46.968 3.732 68.84 50.455 76.755 119.391 56.585"/><polygon class="cls-1" points="50.455 74.032 106.029 57.011 72.753 50.202 13.519 67.819 50.455 74.032"/><polygon class="cls-1" points="112.583 24.5 41.604 45.691 3.732 68.84 73.434 46.968 112.583 24.5"/><path class="cls-1" d="M41.60387,45.69149a33.5442,33.5442,0,0,0-8.42553-16.17021,32.39166,32.39166,0,0,0-7.74468-5.95745c-1.95653-.93215-7.74692-3.36173-13.44681-1.02128C5.315,25.28211,3.16953,32.74952,1.77409,37.60638.061,43.56877.44016,48.50885.83792,53.69149A68.92989,68.92989,0,0,0,3.73154,68.84043Z"/><path class="cls-1" d="M32.32728,42.96808,8.072,57.71277A28.447,28.447,0,0,1,6.36983,43.1383c.54852-3.54706,1.16985-7.565,4.59575-10.55319,4.10508-3.58063,9.38926-3.19893,10.7234-3.06383a19.96174,19.96174,0,0,1,10.6383,13.4468Z"/><path class="cls-1" d="M11.98685,22.54255l14.80851-5.53191c1.45427.79409,2.99929,1.72254,4.59575,2.80851A55.277,55.277,0,0,1,37.34856,24.5,43.09394,43.09394,0,0,1,44.923,37.60638l59.74468-16.052A37.17281,37.17281,0,0,0,94.36984,6.62766,27.40622,27.40622,0,0,0,85.689,2.117L94.62515.5a51.77692,51.77692,0,0,1,9.10639,7.06383A43.82559,43.82559,0,0,1,112.5826,24.5L41.60387,45.69149a33.43855,33.43855,0,0,0-8.42553-16.17021,32.47637,32.47637,0,0,0-7.74468-5.95745,16.84465,16.84465,0,0,0-13.44681-1.02128Z"/><path class="cls-1" d="M87.77568,2.85778,28.22948,17.82292a55.35112,55.35112,0,0,1,5.12949,3.4c1.48413,1.10727,2.81145,2.21353,3.98959,3.277A43.09394,43.09394,0,0,1,44.923,37.60638l59.74468-16.052A37.20609,37.20609,0,0,0,94.36984,6.62766a27.288,27.288,0,0,0-6.59416-3.76988Z"/><path class="cls-1" d="M74.91422,10.75112,63.22089,13.94681A24.85205,24.85205,0,0,1,70.072,25.7766l10.25532-2.68086a36.78163,36.78163,0,0,0-5.41306-12.34462Z"/></g><g id="Calque_3" data-name="Calque 3"><path class="cls-1" d="M79.56133,41.52128A20.51432,20.51432,0,0,0,59.22089,45.8617a8.28977,8.28977,0,0,0-8.25531,3.82979,15.65416,15.65416,0,0,0-9.2766,2.55319,14.86992,14.86992,0,0,0-3.57447,3.40426,18.76121,18.76121,0,0,0-6.7234,2.97872,18.45748,18.45748,0,0,0-2.97872,2.6383,7.0928,7.0928,0,0,0-8.68085,6.6383,16.56206,16.56206,0,0,0,3.91489,1.19149c2.59331.44664,3.45005-.05783,6.383.0851,3.53212.17213,3.86316.98047,6.7234,1.02128a16.26423,16.26423,0,0,0,6.04255-1.10638,27.12975,27.12975,0,0,0,10.97873-.25532A22.15069,22.15069,0,0,0,65.9443,67.39362a12.80243,12.80243,0,0,0,3.82979,0,12.95961,12.95961,0,0,0,5.3617-2.12766A21.3051,21.3051,0,0,0,85.26345,61.8617a17.50821,17.50821,0,0,0,7.82979-2.04255,8.75375,8.75375,0,0,0,6.02147-1.79447,7.64726,7.64726,0,0,0,1.46789-1.60979,5.40645,5.40645,0,0,0-.34043-4.17021,4.87448,4.87448,0,0,0-1.3617-1.53191A2.94756,2.94756,0,0,0,96.6677,50.117a2.89475,2.89475,0,0,0-1.70212.93616,5.88554,5.88554,0,0,0-6.29788-2.383,9.25415,9.25415,0,0,0-9.10637-7.14893Z"/><path class="cls-1" d="M50.96558,49.69149a2.37607,2.37607,0,0,0-.25532,2.12766,2.27861,2.27861,0,0,0,2.21277,1.3617,10.00519,10.00519,0,0,1,3.06382-1.27659,10.13587,10.13587,0,0,1,4.85107.0851,10.76483,10.76483,0,0,1,14.29787-.55319,14.39286,14.39286,0,0,1,9.02128-3.78723"/><path class="cls-1" d="M59.22089,45.8617a15.51321,15.51321,0,0,1,9.53193,1.44681"/><path class="cls-1" d="M79.56133,41.52128A9.27215,9.27215,0,0,0,72.072,45.8617a2.494,2.494,0,0,0,.08511,2.21277,2.59387,2.59387,0,0,0,3.57447.25532,22.47835,22.47835,0,0,0,7.65957-2.46809,4.74564,4.74564,0,0,0-.93617-2.55319A4.8329,4.8329,0,0,0,79.56133,41.52128Z"/><path class="cls-1" d="M52.923,53.18085c-3.50737,3.36858-3.82237,4.69879-3.48937,5.2766.21242.36858.79619.6178,2.12767.51063a24.59526,24.59526,0,0,0,5.78723,0,10.36335,10.36335,0,0,1,9.27659-3.62594,11.058,11.058,0,0,0,5.53192-.28895,10.92429,10.92429,0,0,0,3.48936-1.87038,1.2345,1.2345,0,0,1-.59575-.59771,1.3078,1.3078,0,0,1,.08511-1.14893"/><path class="cls-1" d="M75.64643,53.18281a17.89376,17.89376,0,0,0,7.74468,0A10.021,10.021,0,0,1,89.689,50.41588a3.26356,3.26356,0,0,0-1.02128-1.74567"/><path class="cls-1" d="M38.11451,55.64894a2.5773,2.5773,0,0,0-1.06382,1.79787c-.02592,1.25687,1.38209,2.63929,3.51063,2.77659a7.58483,7.58483,0,0,1,7.0532-3.47872"/><path class="cls-1" d="M40.56132,60.2234a1.71991,1.71991,0,0,0-.09574,1.34043c.48617,1.18887,2.91181,1.65052,6.06383.95745A14.92242,14.92242,0,0,1,55.306,60.82979"/><path class="cls-1" d="M28.41239,61.266a3.70173,3.70173,0,0,0-.45745,3.26595,3.63606,3.63606,0,0,0,4.05319,2.04256,8.102,8.102,0,0,1,8.45745-5.01064"/><path class="cls-1" d="M32.00813,66.57447a3.23488,3.23488,0,0,0,.35107,1.7234,3.51747,3.51747,0,0,0,2.3723,1.70236"/><path class="cls-1" d="M46.52941,62.52128c-.182.06823-3.59661,1.40627-3.98936,4.40426a4.62316,4.62316,0,0,0,.25531,2.17021"/><path class="cls-1" d="M57.34856,58.96808a2.08733,2.08733,0,0,0-.25532,1.82979c1.05393,2.37171,9.178.72449,10.39783.46921"/><path class="cls-1" d="M53.77409,68.84043a1.90249,1.90249,0,0,1-1.14894-1.05319c-.51339-1.47064,1.69993-3.904,5.53543-6.1337"/><path class="cls-1" d="M65.9443,67.39362a2.69386,2.69386,0,0,1-1.54255-1.68085c-.42648-1.83789,2.15144-4.4822,6.67021-6.31915a9.73668,9.73668,0,0,1,1.20178-2.22446,10.47046,10.47046,0,0,1,5.11855-3.68965"/><path class="cls-1" d="M83.39111,53.18281c-2.16938.7259-2.96533,2.85131-2.3539,4.01918A2.95472,2.95472,0,0,0,84.189,58.30851c1.44077-.09442,2.97742-.2471,4.59575-.47872,2.09272-.29952,4.02351-.68831,5.7766-1.117"/><path class="cls-1" d="M79.306,62.617c-1.50493.98883-3.22274.66277-3.766-.15958-.58763-.88959-.10476-2.82015,1.7234-3.70213A10.03283,10.03283,0,0,1,81.03721,57.202"/><path class="cls-1" d="M71.072,59.39362a7.83275,7.83275,0,0,0,6.19149-.6383"/></g></g></svg>