<svg xmlns="http://www.w3.org/2000/svg" viewBox="0 0 141.73228 141.73228"><defs><style>.cls-1{fill:#646974;}.cls-1,.cls-3,.cls-4,.cls-5,.cls-6,.cls-7,.cls-8{stroke:#1d1d1b;stroke-linecap:round;stroke-linejoin:round;}.cls-2{fill:#3b403f;}.cls-3{fill:#582816;}.cls-4{fill:#cd5d29;}.cls-5{fill:#e2e1e1;}.cls-6{fill:#cd5d2a;}.cls-7{fill:#3f3f3e;}.cls-8,.cls-9{fill:#1d1d1b;}</style></defs><title>Plan de travail 1</title><g id="Calque_2" data-name="Calque 2"><path class="cls-1" d="M82.971,4.19827a11.82274,11.82274,0,0,0-6.94593,6.99748q-.01812.05386-.03555.10758a9.3323,9.3323,0,0,0,2.1219,9.23971A17.85281,17.85281,0,0,1,83.151,32.47147a17.89865,17.89865,0,0,1-4.528,11.95565,93.75091,93.75091,0,0,1-10.59,4.12678c-5.9866,1.91926-8.7212,2.11772-11.72036,4.48256a16.86237,16.86237,0,0,0-5.34318,7.93676,16.31926,16.31926,0,0,0,.407,9.20768c3.4266,9.43162,14.52969,8.52945,21.03507,19.86881,1.07118,1.86715,3.81784,6.80306,3.02791,12.69148-.52485,3.91241-2.01913,3.83368-3.50107,8.921-2.02369,6.94717.02292,9.63412-2.0175,16.2876a27.42175,27.42175,0,0,1-3.45042,7.21967c13.09878,1.69485,24.88438-2.35855,29.941-10.86539a19.76,19.76,0,0,0,2.65269-8.59882,38.81585,38.81585,0,0,1-.166-11.58454c1.70872-12.34162,8.78249-17.96134,6.75006-26.53428a16.21674,16.21674,0,0,0-3.87562-7.0972C93.157,63.73134,92.00469,59.242,92.485,56.41942c.79352-4.66322,6.16989-5.52155,6.79446-10.86645.4842-4.14358-2.59791-4.90357-4.23914-12.04638-1.59471-6.94032.89285-8.06059-1.01159-11.78-3.15062-6.15323-11.314-5.3013-12.62652-10.59321C80.74658,8.48987,81.92362,5.9124,82.971,4.19827Z"/></g><g id="Calque_9" data-name="Calque 9"><path class="cls-2" d="M64.3126,54.64409a28.86545,28.86545,0,0,0,1.33056,15.36554c3.87628,9.82739,11.80732,11.562,16.34708,20.45113,2.26,4.42531,4.04911,11.34726,1.54351,22.10012l-5.08826,7.89463c5.47083-15.27384,3.49524-23.95065.38565-29.12743C74.678,84.414,67.20968,81.59191,63.68733,71.35629A30.47051,30.47051,0,0,1,62.0924,60.58065Z"/><path class="cls-2" d="M88.31134,29.30448A30.51207,30.51207,0,0,1,86.09181,43.798c-1.848,4.30435-3.033,4.05455-3.91323,7.0356-1.98812,6.733,3.03863,11.45505,6.59715,22.92989a65.40173,65.40173,0,0,1,2.65978,13.61709q1.0263-5.51853,2.05259-11.03706a4.69034,4.69034,0,0,0-.84977-3.63927c-5.32772-7.21024-5.7937-12.27035-5.02377-15.70615.83818-3.74038,3.30441-6.28444,3.93759-12.14352a25.1523,25.1523,0,0,0-.51868-8.317Q89.67242,32.92105,88.31134,29.30448Z"/><path class="cls-2" d="M97.1305,93.42511a52.17851,52.17851,0,0,1-10.40221,27.66015,50.37855,50.37855,0,0,1-12.08518,11.26236A47.501,47.501,0,0,0,90.9278,121.59344a70.28384,70.28384,0,0,0,3.6178-9.98188A70.68854,70.68854,0,0,0,97.1305,93.42511Z"/></g><g id="Calque_4" data-name="Calque 4"><path class="cls-3" d="M50.51424,64.87629l.45516-3.90307a19.50921,19.50921,0,0,1-4.5038-3.15671C39.451,51.219,41.24088,42.7074,35.24875,38.87572a11.40777,11.40777,0,0,0-7.07449-1.57007,66.23057,66.23057,0,0,0-.80032,26.88171L32.121,76.334l3.54592,12.45146A35.12023,35.12023,0,0,1,42.4533,72.46956,34.43843,34.43843,0,0,1,50.51424,64.87629Z"/></g><g id="Calque_7" data-name="Calque 7"><path class="cls-4" d="M28.17426,37.30565a22.93124,22.93124,0,0,1,6.43655,6.87544c3.60731,6.03746,2.22257,10.54926,5.75488,16.90216a24.8671,24.8671,0,0,0,5.988,7.09909,13.54243,13.54243,0,0,1,4.16057-3.306,19.76666,19.76666,0,0,1,.139-2.03582c.0815-.677.19222-1.30137.31618-1.86725a18.001,18.001,0,0,1-4.5038-3.15671c-6.37943-6.15555-4.42223-13.801-9.7684-18.07585C35.15437,38.507,32.588,37.222,28.17426,37.30565Z"/></g><g id="Calque_3" data-name="Calque 3"><path class="cls-5" d="M75.48854,100.52891a11.18117,11.18117,0,0,1-.6126,5.12381c-.68863,1.81592-1.518,2.428-2.40964,4.3989a17.09742,17.09742,0,0,0-1.27362,5.207c-.90511,6.69049-.29522,8.31363-.98687,11.68247a21.21878,21.21878,0,0,1-3.7354,8.22837l-24.7851-28.32459-3.05083-9.70518-2.9676-8.35426a16.74141,16.74141,0,0,0-6.14766-6.56884,16.41764,16.41764,0,0,0-5.55755-2.0812A11.05231,11.05231,0,0,1,30.579,77.19107a10.844,10.844,0,0,1,5.40324,1.00335,20.2195,20.2195,0,0,0-12.941-5.74936,13.60347,13.60347,0,0,1,8.355-1.79471,13.0638,13.0638,0,0,1,4.76459,1.54673,20.3842,20.3842,0,0,0-11.7584-6.8636,26.85377,26.85377,0,0,1,19.80091,5.03209,34.16048,34.16048,0,0,1,6.311-5.48928,14.97854,14.97854,0,0,0,.86218,5.30461c3.22652,8.93929,13.64878,9.26705,19.8973,18.04692A24.21619,24.21619,0,0,1,75.48854,100.52891Z"/></g><g id="Calque_6" data-name="Calque 6"><path class="cls-6" d="M50.51424,64.87629A34.46918,34.46918,0,0,0,35.66688,88.78547l2.9676,8.35426c2.78583,1.374,5.198,2.53261,7.11141,3.44027,7.27823,3.45246,9.21981,4.16455,11.74676,4.2822a16.52683,16.52683,0,0,0,6.41943-1.01675,9.52939,9.52939,0,0,1,3.23618-2.8837,10.53285,10.53285,0,0,1,8.34028-.43284,24.21619,24.21619,0,0,0-4.21482-12.30109C65.0252,79.448,54.60294,79.12019,51.37642,70.1809A14.97854,14.97854,0,0,1,50.51424,64.87629Z"/></g><g id="Calque_5" data-name="Calque 5"><path class="cls-7" d="M61.38436,85.79244a4.71377,4.71377,0,0,1-1.2833,5.60976,33.05358,33.05358,0,0,1-11.7778-4.466,19.49285,19.49285,0,0,1-4.0316-4.71782,7.97453,7.97453,0,0,1,1.6391-.71749,8.23778,8.23778,0,0,1,3.84883-.226c1.23195.30762,2.52726.6815,3.87216,1.137A49.47463,49.47463,0,0,1,61.38436,85.79244Z"/></g><g id="Calque_8" data-name="Calque 8"><path class="cls-8" d="M63.91208,103.84545a20.70051,20.70051,0,0,1,3.08042,2.348,21.07063,21.07063,0,0,1,4.66472,6.31748,25.73045,25.73045,0,0,1,.98625-3.08406c.842-2.15575,1.46827-2.89993,2.0508-4.53672a14.1183,14.1183,0,0,0,.79427-4.36127,9.77617,9.77617,0,0,0-11.57646,3.31654Z"/><path class="cls-9" d="M70.53117,120.87725a22.43545,22.43545,0,0,1-4.80792-.03783,21.13772,21.13772,0,0,1-6.83472-1.97822l1.24118,2.08022a14.78936,14.78936,0,0,0,5.5313,1.98863,13.8353,13.8353,0,0,0,4.78933-.17022Z"/></g></svg>