<svg xmlns="http://www.w3.org/2000/svg" viewBox="0 0 174.03142 134.43905"><defs><style>.cls-1{fill:none;stroke:#000;stroke-miterlimit:10;stroke-width:2px;}</style></defs><title>Option_manette</title><g id="Calque_2" data-name="Calque 2"><g id="Calque_4" data-name="Calque 4"><path class="cls-1" d="M168.3295,57.296a149.06331,149.06331,0,0,0-18.74469-43.02479,35.39059,35.39059,0,0,0-17.0393-11.712,35.90073,35.90073,0,0,0-24.91614,1.59442,54.62305,54.62305,0,0,1-20.4588,3.47308c-6.9082-.19262-9.72211,1.39142-21.617-3.75726a34.59629,34.59629,0,0,0-41.36169,10.736A149.11152,149.11152,0,0,0,2.745,117.24373a18.91261,18.91261,0,0,0,12,15.06378,18.99673,18.99673,0,0,0,20.68091-5.36169A136.9458,136.9458,0,0,0,48.9578,113.41389,137.00354,137.00354,0,0,0,62.48972,94.91945a11.04636,11.04636,0,0,1,3.31915-4.73956,10.92722,10.92722,0,0,1,3.82978-2.04261q17.6856.10263,35.37115.2052a10.90614,10.90614,0,0,1,6.53687,6.577,140.76158,140.76158,0,0,0,16.29,21.5719,140.32375,140.32375,0,0,0,11.12805,10.83874A18.8727,18.8727,0,0,0,171.732,114.17531,149.47251,149.47251,0,0,0,168.3295,57.296Zm-99.289-7.33136a2,2,0,0,0-2,2H58.19187a2,2,0,0,1-2,2v8.84863a2,2,0,0,0-2,2H47.29825a2,2,0,0,0-2-2V53.96462a2,2,0,0,1-2-2H34.44962a2,2,0,0,0-2-2V43.071a2,2,0,0,0,2-2h8.84863a2,2,0,0,1,2-2V30.22237a2,2,0,0,0,2-2h6.89362a2,2,0,0,0,2,2V39.071a2,2,0,0,1,2,2H67.0405a2,2,0,0,0,2,2Zm50.01538-25.14673a7.43332,7.43332,0,1,1-7.43335,7.43329A7.43329,7.43329,0,0,1,119.05588,24.81789Zm-14.279,29.13324a7.43332,7.43332,0,1,1,7.43335-7.43329A7.43336,7.43336,0,0,1,104.77689,53.95113Zm14.279,14.86663a7.43332,7.43332,0,1,1,7.43329-7.43328A7.43331,7.43331,0,0,1,119.05588,68.81776Zm14.86664-14.86663a7.43332,7.43332,0,1,1,7.43329-7.43329A7.43336,7.43336,0,0,1,133.92252,53.95113Z"/></g></g></svg>