<svg xmlns="http://www.w3.org/2000/svg" viewBox="0 0 163.86437 106.40252"><defs><style>.cls-1,.cls-2{fill:none;stroke:#000;stroke-miterlimit:10;}.cls-2{stroke-width:2px;}</style></defs><title>Otption_fleche</title><g id="Calque_2" data-name="Calque 2"><g id="Calque_2-2" data-name="Calque 2"><path class="cls-1" d="M124.14785,84.0678a65.964,65.964,0,0,1,19.41211,0,9.028,9.028,0,0,1-3.34108,4.508,14.52861,14.52861,0,0,1-6.1158,2.54294l4.66484,3.478a59.40193,59.40193,0,0,1,7.18577-6.49608,69.32255,69.32255,0,0,1,10.23447-6.49224,43.83659,43.83659,0,0,1-10.44687-5.86008,33.81287,33.81287,0,0,1-6.97337-7.12825l-4.66484,3.478a26.4389,26.4389,0,0,1,5.9034,3.49183,20.996,20.996,0,0,1,3.55343,3.55907,66.04425,66.04425,0,0,1-19.41206,0,2.47523,2.47523,0,0,0,0,4.91872Z"/><rect class="cls-2" x="115.27624" y="57.81439" width="47.58812" height="47.58812" rx="4.65192" transform="translate(220.67876 -57.46185) rotate(90)"/><path class="cls-1" d="M118.52269,98.43454V64.78237a3.72154,3.72154,0,0,0,3.72153-3.72153h33.65217a3.72153,3.72153,0,0,0,3.72153,3.72153V98.43454a3.72153,3.72153,0,0,0-3.72153,3.72153H122.24422A3.72154,3.72154,0,0,0,118.52269,98.43454Z"/><path class="cls-1" d="M79.47284,66.686a65.964,65.964,0,0,1,0,19.41211,9.028,9.028,0,0,1-4.508-3.34108,14.52848,14.52848,0,0,1-2.54294-6.1158l-3.478,4.66484a59.4011,59.4011,0,0,1,6.49607,7.18577,69.32268,69.32268,0,0,1,6.49225,10.23447,43.83659,43.83659,0,0,1,5.86008-10.44687,33.81263,33.81263,0,0,1,7.12825-6.97337l-3.478-4.66484a26.4386,26.4386,0,0,1-3.49184,5.9034,20.99568,20.99568,0,0,1-3.55907,3.55343,66.04425,66.04425,0,0,1,0-19.41206,2.47522,2.47522,0,0,0-4.91871,0Z"/><rect class="cls-2" x="58.13812" y="57.81439" width="47.58812" height="47.58812" rx="4.65192" transform="translate(163.86437 163.21691) rotate(180)"/><path class="cls-1" d="M65.1061,61.06084H98.75827a3.72153,3.72153,0,0,0,3.72153,3.72153V98.43454a3.72153,3.72153,0,0,0-3.72153,3.72153H65.1061a3.72154,3.72154,0,0,0-3.72153-3.72153V64.78237A3.72154,3.72154,0,0,0,65.1061,61.06084Z"/><path class="cls-1" d="M84.39152,39.71652a65.965,65.965,0,0,1,0-19.41212,9.02808,9.02808,0,0,1,4.508,3.34109,14.52863,14.52863,0,0,1,2.54294,6.11579l3.478-4.66484a59.40253,59.40253,0,0,1-6.49608-7.18576A69.32255,69.32255,0,0,1,81.93219,7.67621a43.83732,43.83732,0,0,1-5.86008,10.44687,33.81252,33.81252,0,0,1-7.12825,6.97336l3.478,4.66484a26.43908,26.43908,0,0,1,3.49183-5.90339,20.99654,20.99654,0,0,1,3.55907-3.55344,66.04432,66.04432,0,0,1,0,19.41207,2.47522,2.47522,0,0,0,4.91871,0Z"/><rect class="cls-2" x="58.13812" y="1" width="47.58812" height="47.58812" rx="4.65192"/><path class="cls-1" d="M98.75827,45.34168H65.1061a3.72153,3.72153,0,0,0-3.72153-3.72153V7.968A3.72154,3.72154,0,0,0,65.1061,4.24644H98.75827A3.72153,3.72153,0,0,0,102.4798,7.968V41.62015A3.72152,3.72152,0,0,0,98.75827,45.34168Z"/><path class="cls-1" d="M39.71652,79.14911a65.96405,65.96405,0,0,1-19.41212,0,9.02811,9.02811,0,0,1,3.34109-4.508,14.52863,14.52863,0,0,1,6.11579-2.54294l-4.66484-3.478a59.40253,59.40253,0,0,1-7.18576,6.49608A69.32338,69.32338,0,0,1,7.67621,81.60845a43.837,43.837,0,0,1,10.44687,5.86008,33.81252,33.81252,0,0,1,6.97336,7.12825l4.66484-3.478a26.43878,26.43878,0,0,1-5.90339-3.49184,20.99617,20.99617,0,0,1-3.55344-3.55907,66.04432,66.04432,0,0,1,19.41207,0,2.47522,2.47522,0,0,0,0-4.91871Z"/><rect class="cls-2" x="1" y="57.81439" width="47.58812" height="47.58812" rx="4.65192" transform="translate(-56.81439 106.40252) rotate(-90)"/><path class="cls-1" d="M45.34168,64.78237V98.43454a3.72153,3.72153,0,0,0-3.72153,3.72153H7.968a3.72154,3.72154,0,0,0-3.72154-3.72153V64.78237A3.72154,3.72154,0,0,0,7.968,61.06084H41.62015A3.72153,3.72153,0,0,0,45.34168,64.78237Z"/></g></g></svg>