<svg xmlns="http://www.w3.org/2000/svg" viewBox="0 0 786.6801 417.10498"><defs><style>.cls-1{fill:none;stroke:#000;stroke-miterlimit:10;stroke-width:2px;}</style></defs><title>Panneau_option</title><g id="Calque_2" data-name="Calque 2"><g id="Calque_5" data-name="Calque 5"><path class="cls-1" d="M719.25251,93.14553H67.42759a44.50229,44.50229,0,0,0-44.50231,44.50231V371.60267A44.50229,44.50229,0,0,0,67.42759,416.105H719.25251a44.50229,44.50229,0,0,0,44.50231-44.50231V137.64784A44.50229,44.50229,0,0,0,719.25251,93.14553ZM53.903,108.30484a13.182,13.182,0,1,1-13.182,13.182A13.182,13.182,0,0,1,53.903,108.30484Zm0,292.64083a13.182,13.182,0,1,1,13.182-13.182A13.182,13.182,0,0,1,53.903,400.94567Zm653.42722-13.182H79.34986A25.44682,25.44682,0,0,0,53.903,362.31681V146.93369a25.44681,25.44681,0,0,0,25.44684-25.44683H707.33024a25.44681,25.44681,0,0,0,25.44683,25.44683V362.31681A25.44681,25.44681,0,0,0,707.33024,387.76365Zm25.44683,13.182a13.182,13.182,0,1,1,13.182-13.182A13.182,13.182,0,0,1,732.77707,400.94567Zm0-266.27679a13.182,13.182,0,1,1,13.182-13.182A13.182,13.182,0,0,1,732.77707,134.66888Z"/><path class="cls-1" d="M1,1H785.6801a0,0,0,0,1,0,0V25.65821a42.23541,42.23541,0,0,1-42.23541,42.23541H43.23541A42.23541,42.23541,0,0,1,1,25.65821V1A0,0,0,0,1,1,1Z"/><rect class="cls-1" x="128.86638" y="67.89362" width="30.6383" height="26.04255"/><rect class="cls-1" x="605.41344" y="67.89362" width="30.6383" height="26.04255"/></g></g></svg>