<svg xmlns="http://www.w3.org/2000/svg" viewBox="0 0 36.32951 40.87868"><defs><style>.cls-1{fill:#7f7a53;stroke:#000;stroke-linecap:round;stroke-linejoin:round;}</style></defs><title>Pause</title><g id="Calque_2" data-name="Calque 2"><g id="Calque_10" data-name="Calque 10"><path class="cls-1" d="M7.39966,37.06651A9.6646,9.6646,0,0,0,.5,40.37868V.5A11.02568,11.02568,0,0,0,7.14435,3.10174,10.94368,10.94368,0,0,0,14.12738.5V40.37868A9.7155,9.7155,0,0,0,7.39966,37.06651Z"/><path class="cls-1" d="M29.10179,37.06651a9.6646,9.6646,0,0,0-6.89966,3.31217V.5a11.02568,11.02568,0,0,0,6.64435,2.60174A10.9437,10.9437,0,0,0,35.82951.5V40.37868A9.71553,9.71553,0,0,0,29.10179,37.06651Z"/></g></g></svg>