<svg xmlns="http://www.w3.org/2000/svg" viewBox="0 0 49.2066 150.60052"><defs><style>.cls-1{fill:#635945;}.cls-1,.cls-10,.cls-11,.cls-12,.cls-13,.cls-14,.cls-15,.cls-16,.cls-17,.cls-19,.cls-2,.cls-20,.cls-21,.cls-22,.cls-23,.cls-24,.cls-25,.cls-27,.cls-29,.cls-3,.cls-31,.cls-32,.cls-33,.cls-34,.cls-35,.cls-37,.cls-38,.cls-39,.cls-4,.cls-5,.cls-6,.cls-7,.cls-8,.cls-9{stroke:#1d1d1b;}.cls-1,.cls-11,.cls-12,.cls-13,.cls-14,.cls-15,.cls-16,.cls-17,.cls-19,.cls-2,.cls-20,.cls-21,.cls-22,.cls-23,.cls-24,.cls-25,.cls-27,.cls-29,.cls-3,.cls-31,.cls-32,.cls-33,.cls-34,.cls-35,.cls-37,.cls-38,.cls-39,.cls-4,.cls-5,.cls-6,.cls-7,.cls-8,.cls-9{stroke-linecap:round;stroke-linejoin:round;}.cls-2{fill:#1e1e1e;}.cls-3{fill:#313133;}.cls-4{fill:#414142;}.cls-5{fill:#484848;}.cls-6{fill:#292a2c;}.cls-7{fill:#e3e3e2;}.cls-8{fill:#716650;}.cls-9{fill:#b2b4b7;}.cls-10{fill:#8d8f92;stroke-miterlimit:10;}.cls-11{fill:#6b604c;}.cls-12{fill:#262521;}.cls-13{fill:#272729;}.cls-14{fill:#7a7259;}.cls-15{fill:#4a4131;}.cls-16{fill:#fffffb;}.cls-17{fill:#423d2a;}.cls-18{fill:#322d20;}.cls-19{fill:#5a5243;}.cls-20{fill:#353537;}.cls-21{fill:#76777c;}.cls-22{fill:#2b2c2c;}.cls-23{fill:#6ac6db;}.cls-24{fill:#808186;}.cls-25{fill:#1b1c1e;}.cls-26{fill:#050403;}.cls-27{fill:#c6c6c8;}.cls-28{fill:#7f7f80;}.cls-29{fill:#714118;}.cls-30{fill:#5d3413;}.cls-31{fill:#f3f0e1;}.cls-32{fill:#43959b;}.cls-33{fill:#160a06;}.cls-34{fill:#574b3f;}.cls-35{fill:#3b3128;}.cls-36{fill:#cbc8bc;}.cls-37{fill:#302f30;}.cls-38{fill:#120b09;}.cls-39{fill:#6fc7da;}.cls-40{fill:#433d32;}</style></defs><title>mia_pose</title><g id="Calque_1" data-name="Calque 1"><path class="cls-1" d="M45.241,22.37372a12.18156,12.18156,0,0,0-4.29307-6.15106c-4.79828-3.55813-10.46008-1.93556-11.133-1.73052l-.30665,1.44092a14.70961,14.70961,0,0,1,9.63386,3.37313,13.80994,13.80994,0,0,1,3.37313,4.36718Z"/><path class="cls-2" d="M20.02535,19.004a9.76767,9.76767,0,0,1-1.31457,9.33867l-1-1.694a6.20887,6.20887,0,0,0,.70056-7.42085Z"/><path class="cls-2" d="M24.29539,17.63047a13.69081,13.69081,0,0,0,3.11033,11.21535,16.98279,16.98279,0,0,0,2.40914-5.39989,10.30229,10.30229,0,0,1-2.07744-6.307,4.0268,4.0268,0,0,1-3.442.49154Z"/><path class="cls-3" d="M22.63419,33.4631v5.97963C27.44858,37.966,35.43238,34.61664,40.655,26.87413a27.74285,27.74285,0,0,0,1.86025-3.20076,13.80994,13.80994,0,0,0-3.37313-4.36718,14.70961,14.70961,0,0,0-9.63386-3.37313l-1.77079,1.20587a9.15982,9.15982,0,0,1,2.07744,9.73124,17.62779,17.62779,0,0,1-7.18067,6.59293Z"/><path class="cls-4" d="M22.63419,33.4631a17.4194,17.4194,0,0,0,12.317-10.47073,6.13328,6.13328,0,0,0-.68144-4.04394,6.4874,6.4874,0,0,0-4.76157-3.01537l-1.77079,1.20587c2.19166,4.80918,1.92887,9.99206-.86127,13.3599A10.15222,10.15222,0,0,1,22.63419,33.4631Z"/><path class="cls-3" d="M13.15365,20.66054a4.75057,4.75057,0,0,0-2.47874.46c-1.89513.95173-2.99849,3.27347-2.86205,5.903.30782,1.155,2.19352,7.8482,7.64065,9.6083a8.72258,8.72258,0,0,0,2.25727.40887,5.17069,5.17069,0,0,1,1.167-3.01537,5.04756,5.04756,0,0,1,1.787-1.35437,9.91374,9.91374,0,0,1-2.40034-3.65422,9.71813,9.71813,0,0,1-.55367-2.368,3.01791,3.01791,0,0,1-.21295-2.7939,2.90542,2.90542,0,0,1,1.826-1.48108,6.34288,6.34288,0,0,0-.91248-3.14587l-1.1435.12944a3.501,3.501,0,0,1-2.47049-1.03056,2.01985,2.01985,0,0,0-1.6437,2.33381Z"/><path class="cls-5" d="M13.15365,20.66054a11.79683,11.79683,0,0,0,2.42407,8.458,11.36045,11.36045,0,0,0,5.08707,3.55238,9.77278,9.77278,0,0,1-2.954-6.02222,3.01791,3.01791,0,0,1-.21295-2.7939,2.90542,2.90542,0,0,1,1.826-1.48108,6.34288,6.34288,0,0,0-.91248-3.14587,3.71441,3.71441,0,0,1-3.614-.90112,2.01985,2.01985,0,0,0-1.6437,2.33381Z"/><path class="cls-6" d="M19.32382,22.37372a2.97534,2.97534,0,0,0-1.69822,1.37886,3.15961,3.15961,0,0,0,.08518,2.89612,6.22462,6.22462,0,0,0,1.613-4.275Z"/><path class="cls-7" d="M46.27163,36.3507a37.07539,37.07539,0,0,1-8.765,3.85866,30.66711,30.66711,0,0,1-.132-9.335c.57989-.58648,1.18779-1.25334,1.8-2.00586a27.86073,27.86073,0,0,0,1.79332-2.469A7.94712,7.94712,0,0,1,46.39941,31.044,7.49024,7.49024,0,0,1,46.27163,36.3507Z"/><path class="cls-7" d="M39.00578,48.3185a6.99842,6.99842,0,0,1-1.49917-8.10914c1.38147-.50542,2.82849-1.081,4.32715-1.73767,1.58512-.69459,3.06491-1.40852,4.43787-2.121a9.95009,9.95009,0,0,1,1.42251,9.99161,30.27251,30.27251,0,0,1-8.68836,1.97619Z"/><path class="cls-7" d="M39.65315,55.678a7.486,7.486,0,0,1-.64737-7.35954,30.30223,30.30223,0,0,0,8.68836-1.97619,7.04839,7.04839,0,0,1-.27257,8.27951A28.40816,28.40816,0,0,1,39.65315,55.678Z"/><path class="cls-8" d="M45.241,22.37372v6.835a7.7064,7.7064,0,0,0-4.273-2.80922l1.54727-2.72611Z"/><path class="cls-7" d="M8.54321,29.2087A8.18336,8.18336,0,0,0,6.467,39.44273l2.86205.76663a7.28912,7.28912,0,0,1,2.09452-6.25253L9.97841,31.57452Z"/><path class="cls-7" d="M6.467,39.44273a10.38127,10.38127,0,0,0-.96811,8.87577l4.17088.54514a4.70156,4.70156,0,0,1-.20443-3.54349,4.47937,4.47937,0,0,1,1.36288-1.908,3.9788,3.9788,0,0,1-1.49917-3.20277Z"/><path class="cls-7" d="M5.49891,56.01877a6.811,6.811,0,0,1-1.2125-4.42937,6.67216,6.67216,0,0,1,1.2125-3.2709l4.17088.54514A3.2138,3.2138,0,0,0,12.45557,49.954a6.776,6.776,0,0,0,.17637,4.29307,3.51251,3.51251,0,0,1-.64526,2.65762Q8.7428,56.4617,5.49891,56.01877Z"/><path class="cls-9" d="M11.42359,33.95683a3.87937,3.87937,0,0,0,2.06129,1.74794,32.52154,32.52154,0,0,1,.001,4.45347,32.50182,32.50182,0,0,1-.39126,3.27092l-2.26635-.017a3.9788,3.9788,0,0,1-1.49917-3.20277,10.86279,10.86279,0,0,1,2.09452-6.25253Z"/><path class="cls-9" d="M12.45557,49.954a3.2138,3.2138,0,0,1-2.78578-1.09031,4.453,4.453,0,0,1,1.15845-5.45151l2.26635.017Z"/><path class="cls-10" d="M37.37458,30.87438a30.745,30.745,0,0,1-5.47827,4.3809,18.83836,18.83836,0,0,0-.296,5.36294,12.50966,12.50966,0,0,0,5.90626-.40886,30.66711,30.66711,0,0,1-.132-9.335Z"/><path class="cls-10" d="M32.42989,49.97251a34.91056,34.91056,0,0,1-.82954-9.35429,12.51214,12.51214,0,0,0,5.90626-.40886,6.99842,6.99842,0,0,0,1.49917,8.10914L38.3296,50.431Z"/><path class="cls-10" d="M37.30218,59.46a3.81947,3.81947,0,0,0-.222-3.78185,2.36358,2.36358,0,0,0,.9034-.57937,2.45494,2.45494,0,0,0,.66221-1.52479L38.3296,50.431l-5.89971-.45844A20.46254,20.46254,0,0,0,37.30218,59.46Z"/><path class="cls-11" d="M25.78077,38.34137a29.02441,29.02441,0,0,0,8.5419,23.12892l4.32316-.34072L37.30218,59.46a29.88868,29.88868,0,0,1-5.40587-24.20476Z"/><path class="cls-11" d="M17.30212,37.01028a34.29954,34.29954,0,0,1-.34092,12.80739,33.98625,33.98625,0,0,1-2.728,7.76841L12.63194,54.247l.85294-18.54225Z"/><path class="cls-12" d="M25.67917,41.5041a16.71216,16.71216,0,0,1-7.93207,0,13.36913,13.36913,0,0,1-.34283,5.86515,29.51021,29.51021,0,0,0,8.86934-.72382,10.68447,10.68447,0,0,1-.59444-5.14133Z"/><path class="cls-13" d="M17.71078,26.6487a14.93749,14.93749,0,0,0,4.50205,5.31523,10.44185,10.44185,0,0,0,1.9565-.70724c1.52231-.72962,2.1276-2.914,3.06933-2.60948.347.87185.16706,2.09013-4.60447,4.81589v8.49236H20.78466l-.11987-9.28454Z"/><path class="cls-9" d="M22.63419,47.27073A13.00933,13.00933,0,0,0,34.32267,61.47029a29.00466,29.00466,0,0,1-8.04906-14.82486Z"/><path class="cls-9" d="M17.40427,47.36925l4.19072-.00478c.10418.79069,1.04736,8.82285-4.09148,12.64406a9.2174,9.2174,0,0,1-2.9955,1.46176,1.54137,1.54137,0,0,1-2.24875-.13629,1.51443,1.51443,0,0,1,.19631-1.874,22.29389,22.29389,0,0,0,3.35584-5.61458A22.295,22.295,0,0,0,17.40427,47.36925Z"/><path class="cls-14" d="M38.64583,61.12957q.33875-.62132.6666-1.29474a30.85043,30.85043,0,0,0,1.6555-4.15664,1.87151,1.87151,0,0,1-1.60988-.17521,1.82321,1.82321,0,0,1-.71222-1.929,2.45494,2.45494,0,0,1-.66221,1.52479,2.36358,2.36358,0,0,1-.9034.57937,3.81947,3.81947,0,0,1,.222,3.78185Z"/><path class="cls-15" d="M34.32267,61.47029l4.32316-.34072a3.67583,3.67583,0,0,1-.96886,2.04432,3.84877,3.84877,0,0,1-2.93019,1.10733l-1.37992.10222c-.71281-1.53378-.757-2.77726-.25553-3.10028C33.19386,61.23,33.52774,61.04937,34.32267,61.47029Z"/><polygon class="cls-9" points="22.634 41.955 25.679 41.504 25.781 38.341 22.634 39.443 22.634 41.955"/><path class="cls-9" d="M20.66479,32.67092l.11987,9.28454L17.7471,41.5041l-.445-4.49382a6.6907,6.6907,0,0,1,1.73121-3.14447A6.49107,6.49107,0,0,1,20.66479,32.67092Z"/><path class="cls-16" d="M20.02535,19.004l4.27-1.37356a12.32635,12.32635,0,0,0,3.11033,11.21535,3.00989,3.00989,0,0,0-.734.15385c-1.09732.37936-1.45311,1.23633-2.28282,1.9421a4.82768,4.82768,0,0,1-2.17607,1.02216,14.9881,14.9881,0,0,1-3.50205-3.62123A9.76767,9.76767,0,0,0,20.02535,19.004Z"/><path class="cls-17" d="M11.4449,68.77873a28.94662,28.94662,0,0,0-2.75383,3.577c-5.55941,8.52732-5.25614,17.97744-4.6602,22.948A8.31572,8.31572,0,0,0,5.10414,99.188a18.147,18.147,0,0,0,4.56565,1.908,18.37087,18.37087,0,0,0,7.73448.34072,18.97945,18.97945,0,0,0,6.35855-15.639l-1.55-12.06149a116.95329,116.95329,0,0,0,5.52431,27.70054,35.57218,35.57218,0,0,0,12.17155-1.32881,29.07949,29.07949,0,0,0,2.94723-11.38c.50159-10.67354-5.2145-18.314-7.03587-20.56245l-1.07327-3.88422L12.677,64.58788a4.46521,4.46521,0,0,0-1.02661,1.53169A4.55776,4.55776,0,0,0,11.4449,68.77873Z"/><path class="cls-18" d="M17.48828,70.18l.159-.73331a49.26108,49.26108,0,0,0,18.17278-1.28125c-3.19467,6.602-6.74768,16.91111-4.87669,28.77677a42.488,42.488,0,0,0,.96693,4.51707l-4.17315-.02252L26.1968,95.66442,24.2952,88.5383a61.61657,61.61657,0,0,0-2.88939-10.036A61.60369,61.60369,0,0,0,17.48828,70.18Z"/><path class="cls-19" d="M31.78252,1.77614a3.30911,3.30911,0,0,1,3.552-1.37991A6.86584,6.86584,0,0,1,38.631,3.69269a6.88042,6.88042,0,0,1,.3322,4.80415,14.18336,14.18336,0,0,0-1.96766,5.34079,13.58989,13.58989,0,0,0,1.96766,8.765A11.91249,11.91249,0,0,1,34.37136,17.63a11.08824,11.08824,0,0,0-1.6619-2.47893q-.16969-.1906-.3392-.39346a16.556,16.556,0,0,1-2.5554-4.21641,7.24791,7.24791,0,0,0,2.96427-3.83311L31.60035,4.91566A3.14332,3.14332,0,0,0,32.967,4.553,3.19853,3.19853,0,0,0,34.3075,3.17006a4.09321,4.09321,0,0,0-2.525-1.39392Z"/><path class="cls-18" d="M12.83322,101.63854a55.783,55.783,0,0,0,3.38193-14.76381A55.65662,55.65662,0,0,0,16.05408,75.47q1.75614,5.15091,3.48022,10.44726,1.427,4.386,2.7762,8.70507a19.06193,19.06193,0,0,1-4.90623,6.8144c-.52544.09011-1.096.1643-1.70736.21054A18.26944,18.26944,0,0,1,12.83322,101.63854Z"/><path class="cls-18" d="M11.4449,68.77874l2.223.30444-.10624.97325L16.05408,75.47l.34331,4.50915a21.19078,21.19078,0,0,0-2.22479-5.67891,18.13061,18.13061,0,0,0-3.25532-4.24383C11.18156,69.74408,11.18062,69.09108,11.4449,68.77874Z"/><path class="cls-13" d="M30.04485,64.58788V60.26656a16.74822,16.74822,0,0,1-8.20591-12.82521,24.05758,24.05758,0,0,1-.94242,6.82271,23.88744,23.88744,0,0,1-1.41533,3.70527,26.698,26.698,0,0,1-.32235,4.472,26.65685,26.65685,0,0,1-.61329,2.862,58.40942,58.40942,0,0,0,8.9439-.35776Q28.803,64.7914,30.04485,64.58788Z"/><path class="cls-20" d="M15.69355,61.04814l-1.08332,3.84638,3.93532.40887a26.7473,26.7473,0,0,0,.74052-3.77895,26.74657,26.74657,0,0,0,.19512-3.55511,8.88261,8.88261,0,0,1-3.78764,3.07881Z"/><path class="cls-20" d="M30.04485,64.58788l3.322-.20444a3.93546,3.93546,0,0,1-.25553-3.10028l-3.06648-1.0166Z"/><path class="cls-20" d="M12.677,64.58788a4.43909,4.43909,0,0,0-1.232,4.19085,68.93549,68.93549,0,0,0,24.37515-.61329,3.07309,3.07309,0,0,0,.25554-1.94211,3.129,3.129,0,0,0-1.32881-1.94211,71.7542,71.7542,0,0,1-11.69792,1.01355A71.74346,71.74346,0,0,1,12.677,64.58788Z"/><path class="cls-21" d="M14.61023,64.89452c-.20283.62462-.39525,1.30716-.56219,2.04432a23.254,23.254,0,0,0-.48635,3.11759l3.92659.12356,1.05727-4.8766Z"/><path class="cls-21" d="M25.95672,65.10464l-4.22816.2379a3.61894,3.61894,0,0,0-1.1898,2.05628,3.66283,3.66283,0,0,0,.56219,2.65761h4.85577a3.91779,3.91779,0,0,0,.91943-2.91316A3.7722,3.7722,0,0,0,25.95672,65.10464Z"/><polygon class="cls-21" points="30.045 64.588 30.351 69.852 33.776 69.58 33.367 64.383 30.045 64.588"/><path class="cls-20" d="M13.56169,70.05643a112.9459,112.9459,0,0,1,6.466,16.15013c.9155,2.92214,1.6662,5.73629,2.28282,8.41579l1.37986-6.03074A45.057,45.057,0,0,0,21.595,79.05144,45.05567,45.05567,0,0,0,17.48828,70.18Z"/><path class="cls-20" d="M30.3515,69.852a51.09527,51.09527,0,0,0-6.0563,18.68631l1.1243,4.90654a109.847,109.847,0,0,1,8.35623-23.86471Z"/><path class="cls-22" d="M40.96793,55.67819a26.81842,26.81842,0,0,0-1.71988,7.32534c-.22211,1.58869-.40241,3.296-.51484,5.1108-.143,2.30851-.156,4.46421-.08738,6.4396H42.5152A32.60725,32.60725,0,0,1,45.241,65.86558a13.42987,13.42987,0,0,0,2.18061-11.24376Z"/><path class="cls-23" d="M41.59525,60.34591l1.03517-4.66772,3.10458-.64751L45.47946,59.46a3.76331,3.76331,0,0,1-.86883,1.75471c-.21143.23519-1.0866,1.2087-1.891.971a1.0693,1.0693,0,0,1-.36076-.20107A2.20064,2.20064,0,0,1,41.59525,60.34591Z"/><path class="cls-24" d="M38.64583,74.55393l-.78146,7.66621L44.764,81.9646a14.90188,14.90188,0,0,0-2.24875-7.41067Z"/><path class="cls-22" d="M38.64583,74.55393a6.72017,6.72017,0,0,0-1.19032,1.2266,7.56271,7.56271,0,0,0-1.37992,4.90637l1.28512.30665.96889-3.21981Z"/><polygon class="cls-24" points="36.076 80.687 36.331 86.053 37.354 86.36 37.361 80.994 36.076 80.687"/><polygon class="cls-22" points="37.864 82.22 38.33 86.667 40.573 87.127 41.953 82.22 37.864 82.22"/><polygon class="cls-22" points="44.764 81.965 41.953 82.22 42.311 86.667 45.019 86.36 44.764 81.965"/><polygon class="cls-24" points="40.573 87.127 39.244 91.726 37.098 91.215 38.33 86.667 40.573 87.127"/><polygon class="cls-24" points="42.311 86.667 41.595 91.726 43.665 92.033 45.019 86.36 42.311 86.667"/><path class="cls-22" d="M5.49891,56.01877a29.52506,29.52506,0,0,0-1.23679,7.03586,25.71377,25.71377,0,0,1-.02682,6.38851,25.71087,25.71087,0,0,1-1.48213,5.87742l3.782,1.07326a24.49364,24.49364,0,0,1,2.793-5.97963,44.72038,44.72038,0,0,0,1.34679-4.39529,44.93868,44.93868,0,0,0,1.31177-9.11426Q8.7428,56.4617,5.49891,56.01877Z"/><path class="cls-23" d="M5.49891,56.01877l2.17361.29679a15.255,15.255,0,0,1-1.70794,4.37462,15.1518,15.1518,0,0,1-1.70246,2.36445,29.58093,29.58093,0,0,1,1.23679-7.03586Z"/><polygon class="cls-24" points="3.28 75.47 2.958 82.22 5.104 82.885 6.535 76.394 3.28 75.47"/><path class="cls-22" d="M4.18419,87.79091l.92-4.90637-2.14654-.6644a16.32119,16.32119,0,0,0,1.22659,5.57077Z"/><path class="cls-25" d="M5.10414,99.188a12.71308,12.71308,0,0,0,1.431,11.55041,9.80883,9.80883,0,0,0,10.52825-1.32881,17.13633,17.13633,0,0,0,.6133-3.47535,17.1646,17.1646,0,0,0-.27244-4.4975A18.16647,18.16647,0,0,1,5.10414,99.188Z"/><path class="cls-26" d="M14.771,110.83979a21.50293,21.50293,0,0,0-.34308-4.114,21.5365,21.5365,0,0,0-1.5947-5.08725,18.26944,18.26944,0,0,0,2.86369.00875c.61134-.04624,1.18192-.12043,1.70736-.21054a17.14933,17.14933,0,0,1,.30788,3.79289,17.15528,17.15528,0,0,1-.64874,4.18,8.76412,8.76412,0,0,1-2.29241,1.43019Z"/><path class="cls-25" d="M27.73714,101.43675a22.29306,22.29306,0,0,0,2.30771,9.40387,15.88939,15.88939,0,0,0,11.26931-2.14653,19.17543,19.17543,0,0,0-1.40547-8.58615,35.59258,35.59258,0,0,1-12.17155,1.32881Z"/><path class="cls-27" d="M17.06341,109.4096l2.86205,4.70193A34.51314,34.51314,0,0,0,8.6817,115.64477l-2.14654-4.90636a9.81167,9.81167,0,0,0,10.52825-1.32881Z"/><path class="cls-27" d="M30.04485,110.84062l-.6133,3.57756a28.56491,28.56491,0,0,0,12.52146-1.891l-.63885-3.8331a15.88939,15.88939,0,0,1-11.26931,2.14653Z"/><path class="cls-28" d="M34.49328,111.43776c-.05359.3376-.30343.47644-.2143,1.03271a4.39387,4.39387,0,0,0,.73533,1.81188c-.847.10408-1.78214.18045-2.7937.20487-1.00718.02431-1.94111-.00649-2.78906-.069.20443-1.19252.40886-2.12551.6133-3.318a7.9631,7.9631,0,0,0,2.06392.22139A10.67582,10.67582,0,0,0,34.49328,111.43776Z"/><path class="cls-29" d="M19.92546,114.11153A34.51314,34.51314,0,0,0,8.6817,115.64477a7.42924,7.42924,0,0,0,.6133,7.15512,49.13472,49.13472,0,0,0,12.06148-1.63545,6.09978,6.09978,0,0,0-1.431-7.05291Z"/><path class="cls-29" d="M29.43155,114.41818a5.97364,5.97364,0,0,0-1.12437,3.1687,6.24091,6.24091,0,0,0,1.73767,4.4975,23.9034,23.9034,0,0,0,13.1755-1.9421,5.50012,5.50012,0,0,0,1.03252-3.67978,5.626,5.626,0,0,0-2.29986-3.93531,28.56491,28.56491,0,0,1-12.52146,1.891Z"/><path class="cls-30" d="M35.01431,114.7843a6.934,6.934,0,0,0-.48,3.62234,9.23227,9.23227,0,0,0,1.28575,3.762l-5.7752-.08427a7.93955,7.93955,0,0,1-.6133-7.66621A20.053,20.053,0,0,0,35.01431,114.7843Z"/><path class="cls-31" d="M21.35648,121.16444c-.05667,1.98628-.19431,4.132-.44954,6.41242-.25573,2.28483-.59669,4.41171-.98148,6.36458a20.248,20.248,0,0,0-.40886,6.74626,36.65908,36.65908,0,0,1,.90972,6.64768c.04592,1.04021.045,2.03054.01022,2.96488H.60664v-1.02642a6.57087,6.57087,0,0,1,.74958-5.3493,5.36815,5.36815,0,0,1,1.34584-1.31178,17.24479,17.24479,0,0,1,6.69515.15333,4.761,4.761,0,0,0,2.24875-3.13463,1.35566,1.35566,0,0,1-.13628-.74958,1.39129,1.39129,0,0,1,.477-.88587,2.88033,2.88033,0,0,0-.34072-2.58948,2.99519,2.99519,0,0,1,.06815-2.93019,2.66181,2.66181,0,0,0,.06814-1.63545,2.54955,2.54955,0,0,0-.40886-.81773,3.91617,3.91617,0,0,1,.27257-3.27091,9.34741,9.34741,0,0,0-1.36288-3.95236,50.85856,50.85856,0,0,0,11.0734-1.63545Z"/><path class="cls-32" d="M11.646,126.75225h5.7241a3.46852,3.46852,0,0,1,0,2.99833l-5.99667.27258a3.91617,3.91617,0,0,1,.27257-3.27091Z"/><path class="cls-32" d="M11.71411,132.47634h5.1108a3.02052,3.02052,0,0,1,0,2.79391l-5.17895.13628a2.99519,2.99519,0,0,1,.06815-2.93019Z"/><path class="cls-32" d="M11.98668,137.996h4.83823a.78863.78863,0,0,1,0,1.56731l-5.17895.06814a1.35566,1.35566,0,0,1-.13628-.74958A1.39129,1.39129,0,0,1,11.98668,137.996Z"/><path class="cls-33" d="M19.5166,140.6877a13.00894,13.00894,0,0,1-10.11939,2.07839,17.24479,17.24479,0,0,0-6.69515-.15333A5.764,5.764,0,0,0,.94651,144.607a6.19352,6.19352,0,0,0-.33987,4.66683v1.02642h19.8299c.03474-.93434.0357-1.92467-.01022-2.96488A36.65908,36.65908,0,0,0,19.5166,140.6877Z"/><polygon class="cls-34" points="0.607 149.274 20.462 149.274 20.437 150.3 0.607 150.3 0.607 149.274"/><path class="cls-35" d="M2.70206,142.61276a5.77285,5.77285,0,0,1,2.225-.24029,5.68382,5.68382,0,0,1,1.19929.24029,17.47937,17.47937,0,0,1,.54515,3.69682,17.46146,17.46146,0,0,1-.13629,2.96426H.60664a6.36205,6.36205,0,0,1,.50849-4.96252A5.65841,5.65841,0,0,1,2.70206,142.61276Z"/><path class="cls-31" d="M30.79443,122.30449A37.44884,37.44884,0,0,1,33.79276,139.904a35.35707,35.35707,0,0,1-.81772,5.24709,6.54442,6.54442,0,0,1,6.95069-2.04432,6.6748,6.6748,0,0,1,3.95235,4.02049l-.20443-2.58947a15.52969,15.52969,0,0,1-1.908-5.31523,14.56344,14.56344,0,0,1,.18739-6.40554,44.2764,44.2764,0,0,0,1.0392-5.79224,44.28667,44.28667,0,0,0,.22814-6.88254,25.86295,25.86295,0,0,1-12.42592,2.16221Z"/><path class="cls-36" d="M35.82005,122.55558a22.26872,22.26872,0,0,0-.75383,6.59574c.13285,3.406.95258,5.27417,1.19149,9.9149.08726,1.69516.062,3.08028.02978,3.95534L32.975,145.15114a36.58858,36.58858,0,0,0,.7673-11.40363,35.0629,35.0629,0,0,0-2.83358-11.17909,9.70712,9.70712,0,0,0,2.37031.03357A11.7112,11.7112,0,0,0,35.82005,122.55558Z"/><path class="cls-37" d="M36.28749,122.12615a21.62125,21.62125,0,0,1,1.18505,3.74022c.808,3.68571.29763,6.03566.27258,11.51634-.00561,1.22729.01087,3.10193.13782,5.4166l1.38637.12925a35.27854,35.27854,0,0,1-.502-6.63615c.08162-4.01835.82747-5.96963.54515-9.88088a26.3929,26.3929,0,0,0-.77182-4.70265Z"/><path class="cls-32" d="M34.54687,125.18494l6.401-.40887a1.26317,1.26317,0,0,1,0,2.45318l-6.401.54515a1.80964,1.80964,0,0,1-.60033-1.48633A1.73024,1.73024,0,0,1,34.54687,125.18494Z"/><path class="cls-32" d="M35.15565,131.45418l5.24709-.477a2.45705,2.45705,0,0,1,.27257,1.49917,2.43253,2.43253,0,0,1-.49841,1.15845l-4.68624.68144a3.663,3.663,0,0,1-.335-2.862Z"/><path class="cls-32" d="M35.42822,137.996h4.97452a1.084,1.084,0,0,1,.40886.88587,1.05619,1.05619,0,0,1-.40886.745H35.42822a1.37979,1.37979,0,0,1-.27257-1.01763A1.30507,1.30507,0,0,1,35.42822,137.996Z"/><path class="cls-35" d="M32.975,145.15113v5.14913h10.8349l.06814-3.173a6.31946,6.31946,0,0,0-10.903-1.97617Z"/><polygon class="cls-34" points="32.975 149.274 43.908 149.274 43.81 150.3 32.975 150.3 32.975 149.274"/><path class="cls-16" d="M15.428,18.81214a2.8992,2.8992,0,0,0,1.83988.54515,23.729,23.729,0,0,0,6.0989-1.36288,23.67443,23.67443,0,0,0,3.88077-1.84194.7121.7121,0,0,0,.33748-.75468,10.66777,10.66777,0,0,1,.30792-5.71663c.08648-.24472.18053-.47907.28033-.70324a.69688.69688,0,0,1,.30193-.32461,6.48679,6.48679,0,0,0,2.96347-3.4826.70114.70114,0,0,1,.57988-.45907,3.77131,3.77131,0,0,0,2.06631-.87675l.00705-.00619a.70451.70451,0,0,0-.08683-1.10942,6.44243,6.44243,0,0,0-2.22253-.94314,20.08682,20.08682,0,0,0-5.38338-.40887A21.19033,21.19033,0,0,0,15.192,5.53184a.7123.7123,0,0,1-.38844.13877l-.26463.0126a.69337.69337,0,0,0-.42535.168,4.02009,4.02009,0,0,0-1.1213,1.63456.70375.70375,0,0,0-.02841.09925,15.93714,15.93714,0,0,0-.32985,3.39053,15.17081,15.17081,0,0,0,.25128,2.54263C13.2473,15.44732,13.68047,17.75591,15.428,18.81214Z"/><path class="cls-38" d="M12.99231,7.48579A2.85666,2.85666,0,0,1,14.539,5.68321a23.82554,23.82554,0,0,1,6.6642.13046A5.68883,5.68883,0,0,1,24.11632,11.64a6.15739,6.15739,0,0,1-4.4464,4.88082,11.50918,11.50918,0,0,1-2.451.34167,11.83916,11.83916,0,0,1-3.49734-.16526,16.38925,16.38925,0,0,1-.72932-9.21142Z"/><path class="cls-39" d="M12.9639,7.585h4.91569a4.63353,4.63353,0,0,1,2.56885.75216l.02217.01483.025.017a3.96183,3.96183,0,0,1,1.70954,3.10477l.0031.081a8.2102,8.2102,0,0,1-.06815,1.36288,6.22415,6.22415,0,0,1-1.4772,2.64847,5.98254,5.98254,0,0,1-.82943.72436,1.55566,1.55566,0,0,1-.53394.24644,11.50963,11.50963,0,0,1-2.20208.33309,15.7087,15.7087,0,0,1-3.37586-.17284A12.277,12.277,0,0,1,12.53184,12.134,10.78885,10.78885,0,0,1,12.9639,7.585Z"/><path class="cls-2" d="M15.192,5.53184c.61582-.02522,1.25728-.03488,1.92249-.02482a34.36983,34.36983,0,0,1,4.08864.30665A5.08574,5.08574,0,0,1,23.37525,4.1271a5.00928,5.00928,0,0,1,1.91655-.35776,10.45947,10.45947,0,0,0,3.90976-.56218,10.41466,10.41466,0,0,0,2.69475-1.405,20.29963,20.29963,0,0,0-6.30672-.36934A20.91318,20.91318,0,0,0,15.192,5.53184Z"/><path class="cls-2" d="M31.60035,4.91567l1.17878,1.79238a7.20428,7.20428,0,0,1-.74107,1.58436,7.3429,7.3429,0,0,1-2.2232,2.24875c-.107.65843-.19607,1.3669-.25554,2.121a25.96416,25.96416,0,0,0-.05111,3.27092,12.54136,12.54136,0,0,1-2.8876,1.76321,5.08706,5.08706,0,0,1-2.32522-.0658,12.04908,12.04908,0,0,0,3.23093-1.78181,11.79531,11.79531,0,0,1,.64692-6.87074,8.39584,8.39584,0,0,0,2.05048-1.5288A5.80924,5.80924,0,0,0,31.60035,4.91567Z"/><path class="cls-26" d="M27.73714,101.43675l4.17315.02252a11.894,11.894,0,0,0-.05684,4.18141,12.04828,12.04828,0,0,0,2.42553,5.45947l-4.23413-.25953a22.31315,22.31315,0,0,1-2.30771-9.40387Z"/><path class="cls-40" d="M34.64069,3.93856C35.741,6.28059,35.976,6.3733,36.4492,8.23643c1.03223,4.0639-.79865,5.3684.19149,9.56367a10.5101,10.5101,0,0,0,.85106,3.11718c-.85611-.51246-.104.00692-1.19149-1.31915a11.27112,11.27112,0,0,1-1.44681-2.19149c-.82595-1.036-2.10467-2.70549-2.95714-4.04255a22.37228,22.37228,0,0,1-1.44711-2.68085,7.42194,7.42194,0,0,0,1.766-1.95745c.74231-.98475,1.47307-1.95479.80851-2.6383-.39292-.59746-.22409-.23232-.617-.82978a2.8335,2.8335,0,0,0,1.234-.53192A3.91126,3.91126,0,0,0,34.64069,3.93856Z"/></g><g id="Calque_3" data-name="Calque 3"><path class="cls-36" d="M19.04961,122.30449a36.47588,36.47588,0,0,0-.62169,9.22981c.17223,3.67555.96028,6.61082-.85106,8.6383-1.06088,1.18747-2.68543,1.71283-2.578,1.94985.10435.23016,1.65318-.22824,2.53542-.54559a14.2332,14.2332,0,0,0,1.9823-.88916,20.30073,20.30073,0,0,1,.40886-6.74627c.412-2.09159.77245-4.37609,1.0325-6.83511.22194-2.09869.32781-3.54094.3809-5.39744C20.6038,121.90308,19.78466,122.11029,19.04961,122.30449Z"/><path class="cls-30" d="M19.32154,121.10877a11.64614,11.64614,0,0,0-1.14894-4.08511,11.554,11.554,0,0,0-1.53409-2.33966l2.93835-.1885a5.16038,5.16038,0,0,1,1.738,2.57267,5.23531,5.23531,0,0,1-.33373,3.70018Z"/><path class="cls-28" d="M16.39866,113.68324a2.51352,2.51352,0,0,0-.43883-1.29787,1.94532,1.94532,0,0,0-1.18883-1.008c.80981-.32337,1.34445-.8894,2.15426-1.21277l2.15051,3.45478-1.35552-.016Z"/></g></svg>