<svg xmlns="http://www.w3.org/2000/svg" viewBox="0 0 199.06383 54.7234"><defs><style>.cls-1{fill:#757575;stroke-width:4px;}.cls-1,.cls-2{stroke:#1d1d1b;stroke-miterlimit:10;}.cls-2{fill:#fff;stroke-width:1.27937px;}.cls-3{fill:#1d1d1b;}</style></defs><title>barre_espace</title><g id="Calque_2" data-name="Calque 2"><g id="Calque_1-2" data-name="Calque 1"><rect class="cls-1" x="2" y="2" width="195.06383" height="50.7234" rx="12"/><rect class="cls-2" x="7.10638" y="5.74468" width="185.87234" height="43.23404" rx="12.68795"/><path class="cls-3" d="M60.522,36.11422s-.48633-.10254-1.458-.30762a12.835,12.835,0,0,1-2.73925-.90039,10.54372,10.54372,0,0,1-2.292-1.42871L55.89306,30.167a8.99061,8.99061,0,0,0,2.84179,1.55957,10.16582,10.16582,0,0,0,3.31055.54981,5.819,5.819,0,0,0,3.04687-.667,2.09355,2.09355,0,0,0,1.084-1.88183v-.01465a1.85253,1.85253,0,0,0-.4834-1.34766,2.872,2.872,0,0,0-1.25976-.73242,15.26326,15.26326,0,0,0-1.99219-.4248.25933.25933,0,0,0-.08106-.01465.25376.25376,0,0,1-.08008-.01465l-.32226-.04395a19.88283,19.88283,0,0,1-3.54492-.84179,5.221,5.221,0,0,1-2.3877-1.77344,5.7584,5.7584,0,0,1-.98144-3.5957v-.01465a6.48884,6.48884,0,0,1,.92285-3.53028A5.82512,5.82512,0,0,1,58.647,15.14449a10.56744,10.56744,0,0,1,4.248-.76855,10.81136,10.81136,0,0,1,2.33594.26367,12.68219,12.68219,0,0,1,2.33691.76172,13.034,13.034,0,0,1,2.168,1.20117l-1.69922,3.39844a10.77772,10.77772,0,0,0-2.57129-1.31836,7.77674,7.77674,0,0,0-2.57031-.46875,5.57068,5.57068,0,0,0-2.85645.60839,1.89508,1.89508,0,0,0-1.01074,1.70606v.01465A1.98235,1.98235,0,0,0,59.55517,22a3.13663,3.13663,0,0,0,1.30371.78418,20.71773,20.71773,0,0,0,2.18261.52734.98947.98947,0,0,0,.11719.02246.98666.98666,0,0,1,.11719.02149,1.45478,1.45478,0,0,1,.168.03711c.05371.01367.11035.02636.16894.03613a17.80279,17.80279,0,0,1,3.376.96A5.25177,5.25177,0,0,1,69.25243,26.205a5.7176,5.7176,0,0,1,.9082,3.41992v.0293a6.21,6.21,0,0,1-.95214,3.48632,5.95336,5.95336,0,0,1-2.77637,2.21192,11.36093,11.36093,0,0,1-4.38672.76172Z"/><path class="cls-3" d="M73.52977,14.59566h4.01368V35.89449H73.52977Zm1.83106,9.16992h6.81152a2.40415,2.40415,0,0,0,1.2666-.33007,2.2517,2.2517,0,0,0,.85743-.92969,2.97852,2.97852,0,0,0,.30761-1.377,3.11721,3.11721,0,0,0-.30078-1.39843,2.19517,2.19517,0,0,0-.84961-.9375,2.43249,2.43249,0,0,0-1.28125-.33008H75.36083V14.59566h6.709a7.30906,7.30906,0,0,1,3.50782.8125,5.7804,5.7804,0,0,1,2.35156,2.293,6.855,6.855,0,0,1,.835,3.42773,6.80964,6.80964,0,0,1-.835,3.41993,5.73965,5.73965,0,0,1-2.35156,2.27832,7.36342,7.36342,0,0,1-3.50782.80566h-6.709Z"/><path class="cls-3" d="M96.98192,14.59566h2.54883l8.14453,21.29883H103.354l-5.09765-14.5459-5.09766,14.5459H88.83739Zm-4.2334,14.01856h11.20606V32.4814H92.74852Z"/><path class="cls-3" d="M113.97411,36.11422s-.57617-.30957-1.72851-.93067a6.20069,6.20069,0,0,1-2.63672-2.709,9.37151,9.37151,0,0,1-.90821-4.29981V22.33a9.36161,9.36161,0,0,1,.90821-4.29883,6.24174,6.24174,0,0,1,2.63672-2.71777,8.61241,8.61241,0,0,1,4.16015-.9375,7.3625,7.3625,0,0,1,3.58887.86425,7.05943,7.05943,0,0,1,2.61426,2.5127,10.83279,10.83279,0,0,1,1.42871,3.97656h-4.16016a5.38024,5.38024,0,0,0-.72558-1.80176,3.47709,3.47709,0,0,0-1.18653-1.14258,3.099,3.099,0,0,0-1.55957-.3955,3.73813,3.73813,0,0,0-1.91894.46191,2.98194,2.98194,0,0,0-1.209,1.34766,4.96587,4.96587,0,0,0-.417,2.13086v5.84472a4.91876,4.91876,0,0,0,.417,2.124,2.98734,2.98734,0,0,0,1.209,1.33984,3.73813,3.73813,0,0,0,1.91894.46191,3.2176,3.2176,0,0,0,1.582-.38769,3.32953,3.32953,0,0,0,1.18653-1.13574,5.26769,5.26769,0,0,0,.70312-1.81641h4.16016a11.03125,11.03125,0,0,1-1.44336,3.97754A7.0911,7.0911,0,0,1,119.98681,35.25a7.31861,7.31861,0,0,1-3.58106.86426Z"/><path class="cls-3" d="M127.40673,14.59566h4.01367V35.89449h-4.01367Zm1.45019,0h12.81739v3.86719H128.85692Zm0,8.78906H140.063v3.86719H128.85692Zm0,8.64258h12.81739v3.86719H128.85692Z"/></g></g></svg>