<svg id="Calque_1" data-name="Calque 1" xmlns="http://www.w3.org/2000/svg" viewBox="0 0 214.97565 265.83099"><defs><style>.cls-1{fill:#88bf57;}.cls-1,.cls-2,.cls-3,.cls-4,.cls-5,.cls-6,.cls-7,.cls-8{stroke:#1d1d1b;stroke-miterlimit:10;}.cls-1,.cls-2,.cls-3,.cls-4,.cls-5{stroke-width:2px;}.cls-2,.cls-7{fill:none;}.cls-3{fill:#6ab53e;}.cls-4{fill:#a9cd77;}.cls-5{fill:#5aa536;}.cls-6{fill:#172218;stroke-width:3.98666px;}.cls-7,.cls-8{stroke-width:5px;}.cls-8{fill:#2f6c2e;}</style></defs><title>batterie</title><rect class="cls-1" x="89.95887" y="40.17411" width="59.4458" height="141.36798" transform="translate(-31.97067 170.98116) rotate(-64.43413)"/><path class="cls-2" d="M4.16315,188.88072a28.34746,28.34746,0,0,0,2.96866,25.08166A28.34862,28.34862,0,0,1,4.16315,188.88072Z"/><path class="cls-2" d="M110.03545,263.1902a28.34651,28.34651,0,0,0,21.39024-13.42867A28.3477,28.3477,0,0,1,110.03545,263.1902Z"/><rect class="cls-3" x="64.42151" y="93.72622" width="59.2832" height="141.36798" transform="translate(-94.84245 178.31261) rotate(-64.43413)"/><path class="cls-2" d="M209.69661,86.49343a28.34636,28.34636,0,0,0-13.3389-37.80377l-76.388-36.54307A28.34636,28.34636,0,0,0,82.16543,25.48411l-13.422,28.05678.00192.00092L82.1666,25.48662A28.34713,28.34713,0,0,1,119.97122,12.1482l76.38444,36.54136a28.34564,28.34564,0,0,1,13.33754,37.8042L196.272,114.549l.00264.00126Z"/><path class="cls-4" d="M196.35566,48.68956,119.97122,12.1482A28.34713,28.34713,0,0,0,82.1666,25.48662L68.74534,53.54181,196.272,114.549,209.6932,86.49376A28.34564,28.34564,0,0,0,196.35566,48.68956Z"/><path class="cls-2" d="M5.28182,186.20313a28.66856,28.66856,0,0,0-1.11867,2.67759A28.67364,28.67364,0,0,1,5.2819,186.203Z"/><path class="cls-2" d="M132.80843,247.21027l.00008-.00017a28.69123,28.69123,0,0,1-1.38282,2.55143A28.68816,28.68816,0,0,0,132.80843,247.21027Z"/><path class="cls-2" d="M18.62033,224.00759a28.2343,28.2343,0,0,1-9.87978-7.825,28.23357,28.23357,0,0,0,9.8797,7.82514l76.38444,36.54136a28.23341,28.23341,0,0,0,12.29263,2.78183,28.23418,28.23418,0,0,1-12.29255-2.782Z"/><path class="cls-5" d="M5.2819,186.203a28.67364,28.67364,0,0,0-1.11875,2.67776,28.34862,28.34862,0,0,0,2.96866,25.08166q.748,1.14519,1.60874,2.22023a28.2343,28.2343,0,0,0,9.87978,7.825L95.00477,260.549a28.23418,28.23418,0,0,0,12.29255,2.782q1.37553-.00389,2.73813-.14074a28.3477,28.3477,0,0,0,21.39024-13.42867,28.69123,28.69123,0,0,0,1.38282-2.55143l12.22612-25.55693L17.508,160.646Z"/><path class="cls-6" d="M183.14,42.36735l-49.95322-23.897,5.94163-12.42013c2.14763-4.4893,9.61332-5.39006,16.674-2.01234L180.184,15.70178c7.06156,3.37816,11.04519,9.75614,8.89756,14.24544Z"/><path class="cls-7" d="M95.00505,260.5491,18.6206,224.00773A28.34651,28.34651,0,0,1,5.28217,186.20309L82.16684,25.48678a28.34653,28.34653,0,0,1,37.80465-13.33844l76.38445,36.54137a28.3463,28.3463,0,0,1,13.33752,37.80421L132.80879,247.21023A28.3463,28.3463,0,0,1,95.00505,260.5491"/><polygon class="cls-8" points="160.162 142.66 131.416 128.908 144.808 100.914 111.424 84.943 98.032 112.937 70.788 99.904 54.817 133.29 82.061 146.322 68.669 174.316 102.053 190.287 115.445 162.293 144.191 176.045 160.162 142.66"/></svg>