<svg xmlns="http://www.w3.org/2000/svg" viewBox="0 0 168.42553 113.61702"><defs><style>.cls-1,.cls-2,.cls-3{fill:#fff;stroke:#1d1d1b;stroke-miterlimit:10;}.cls-1{stroke-width:4px;}.cls-2{stroke-width:1.20952px;}.cls-3{stroke-width:1.21px;}.cls-4{fill:#1d1d1b;}</style></defs><title>crois_clavier</title><g id="Calque_2" data-name="Calque 2"><g id="Calque_1-2" data-name="Calque 1"><rect class="cls-1" x="58.85106" y="2" width="50.7234" height="50.7234" rx="12"/><rect class="cls-2" x="62.59574" y="5.74468" width="43.23404" height="43.23404" rx="10.22819"/><rect class="cls-1" x="2" y="60.89362" width="50.7234" height="50.7234" rx="12"/><rect class="cls-2" x="5.74468" y="64.6383" width="43.23404" height="43.23404" rx="10.22819"/><rect class="cls-1" x="58.85106" y="60.89362" width="50.7234" height="50.7234" rx="12"/><rect class="cls-2" x="62.93617" y="64.6383" width="43.23404" height="43.23404" rx="10.22819"/><rect class="cls-1" x="115.70213" y="60.89362" width="50.7234" height="50.7234" rx="12"/><rect class="cls-3" x="119.44681" y="64.6383" width="43.23404" height="43.23404" rx="10.22819"/></g><g id="Calque_2-2" data-name="Calque 2"><polygon class="cls-4" points="135.24 71.108 131.644 74.791 143.206 86.078 131.755 97.807 135.437 101.402 146.888 89.673 150.319 86.158 150.483 85.99 135.24 71.108"/><polygon class="cls-4" points="69.066 30.542 72.748 34.137 84.035 22.576 95.765 34.027 99.36 30.344 87.63 18.893 84.116 15.462 83.948 15.298 69.066 30.542"/><polygon class="cls-4" points="99.36 83.777 95.677 80.182 84.39 91.743 72.661 80.292 69.066 83.975 80.795 95.426 84.31 98.857 84.478 99.021 99.36 83.777"/><polygon class="cls-4" points="33.186 101.402 36.781 97.72 25.22 86.433 36.671 74.703 32.988 71.108 21.537 82.838 18.106 86.352 17.942 86.52 33.186 101.402"/></g></g></svg>