<svg xmlns="http://www.w3.org/2000/svg" viewBox="0 0 168.42552 113.61703"><defs><style>.cls-1,.cls-3{fill:#757575;}.cls-1,.cls-2,.cls-3{stroke:#1d1d1b;stroke-miterlimit:10;}.cls-1{stroke-width:4px;}.cls-2{fill:#fff;stroke-width:1.21px;}.cls-3{stroke-width:1.20952px;}.cls-4{fill:#1d1d1b;}</style></defs><title>z_saut</title><g id="Calque_2" data-name="Calque 2"><g id="Calque_1-2" data-name="Calque 1"><rect class="cls-1" x="58.85105" y="2" width="50.7234" height="50.7234" rx="12"/><rect class="cls-2" x="62.59573" y="5.74468" width="43.23404" height="43.23404" rx="10.22819"/><rect class="cls-1" x="2" y="60.89358" width="50.72339" height="50.72345" rx="12"/><rect class="cls-3" x="5.74467" y="64.6383" width="43.23404" height="43.23404" rx="10.22819"/><rect class="cls-1" x="58.85105" y="60.89362" width="50.7234" height="50.7234" rx="12"/><rect class="cls-3" x="62.93616" y="64.6383" width="43.23404" height="43.23404" rx="10.22819"/><rect class="cls-1" x="115.70211" y="60.89362" width="50.7234" height="50.7234" rx="12"/><rect class="cls-3" x="119.44679" y="64.6383" width="43.23404" height="43.23404" rx="10.22819"/><path class="cls-4" d="M91.39423,17.17776,82.63446,31.00588h9.05273v3.86719H77.85907V31.26955l8.75977-13.82812h-8.4961V13.57424H91.39423Z"/><path class="cls-4" d="M82.83173,95.00783l-1.45752-.30761a12.83508,12.83508,0,0,1-2.73926-.90039,10.54706,10.54706,0,0,1-2.29248-1.42872l1.86035-3.31054a8.99086,8.99086,0,0,0,2.8418,1.55957,10.16575,10.16575,0,0,0,3.31054.5498,5.81911,5.81911,0,0,0,3.04688-.667,2.09356,2.09356,0,0,0,1.084-1.88184v-.01464a1.85253,1.85253,0,0,0-.4834-1.34766,2.87192,2.87192,0,0,0-1.25976-.73242,15.26436,15.26436,0,0,0-1.99219-.42481.2568.2568,0,0,0-.08057-.01465.25676.25676,0,0,1-.08056-.01464l-.32227-.04395a19.88188,19.88188,0,0,1-3.54492-.8418,5.22088,5.22088,0,0,1-2.38769-1.77343,5.75835,5.75835,0,0,1-.98145-3.59571v-.01464a6.48888,6.48888,0,0,1,.92285-3.53028,5.82509,5.82509,0,0,1,2.68067-2.23437,10.56738,10.56738,0,0,1,4.248-.76856,10.81575,10.81575,0,0,1,2.33643.26367,12.67873,12.67873,0,0,1,2.33642.76172,13.034,13.034,0,0,1,2.168,1.20117l-1.69922,3.39844a10.775,10.775,0,0,0-2.5708-1.31836,7.77944,7.77944,0,0,0-2.5708-.46875,5.57063,5.57063,0,0,0-2.85644.6084,1.895,1.895,0,0,0-1.01074,1.70606v.01464a1.98239,1.98239,0,0,0,.52734,1.457,3.13663,3.13663,0,0,0,1.30371.78418,20.72118,20.72118,0,0,0,2.18262.52734.99094.99094,0,0,0,.11718.02246.98625.98625,0,0,1,.11719.02148,1.46709,1.46709,0,0,1,.16846.03711c.05371.01368.10986.02637.16846.03614a17.80886,17.80886,0,0,1,3.37646.96,5.25039,5.25039,0,0,1,2.26318,1.8164,5.71763,5.71763,0,0,1,.90821,3.41993v.02929a6.21,6.21,0,0,1-.95215,3.48633,5.952,5.952,0,0,1-2.77588,2.21191,11.3633,11.3633,0,0,1-4.38721.76172Z"/><path class="cls-4" d="M23.10663,94.0342a6.78137,6.78137,0,0,1-2.73194-2.75391,8.50847,8.50847,0,0,1-.96679-4.124V81.12111a8.50847,8.50847,0,0,1,.96679-4.124,6.77556,6.77556,0,0,1,2.73194-2.75391,8.30539,8.30539,0,0,1,4.07959-.97363,8.30539,8.30539,0,0,1,4.07959.97363,6.77547,6.77547,0,0,1,2.73193,2.75391,8.50848,8.50848,0,0,1,.9668,4.124v6.03516a8.50848,8.50848,0,0,1-.9668,4.124,6.78129,6.78129,0,0,1-2.73193,2.75391,8.30539,8.30539,0,0,1-4.07959.97363A8.30539,8.30539,0,0,1,23.10663,94.0342Zm5.98389-3.50195A3.14772,3.14772,0,0,0,30.3576,89.2217a4.156,4.156,0,0,0,.44678-1.96289V81.01858a4.15609,4.15609,0,0,0-.44678-1.9629,3.14776,3.14776,0,0,0-1.26708-1.31054,4.15627,4.15627,0,0,0-3.8086,0,3.14778,3.14778,0,0,0-1.26709,1.31054,4.1562,4.1562,0,0,0-.44678,1.9629v6.24023a4.15616,4.15616,0,0,0,.44678,1.96289,3.14775,3.14775,0,0,0,1.26709,1.31055,4.15635,4.15635,0,0,0,3.8086,0Zm-2.53418-1.64746,2.13867-2.71,8.23242,6.24023-2.13867,2.72461Z"/><path class="cls-4" d="M133.56415,73.48928h4.01367V94.78811h-4.01367Zm2.02148,17.43164h5.11231a4.49034,4.49034,0,0,0,3.06152-.95215,3.39708,3.39708,0,0,0,1.084-2.69531V81.00393a3.39711,3.39711,0,0,0-1.084-2.69532,4.49039,4.49039,0,0,0-3.06152-.95214h-5.11231V73.48928h5.02442a10.538,10.538,0,0,1,4.54834.89355,6.333,6.333,0,0,1,2.86377,2.60743,8.18375,8.18375,0,0,1,.98144,4.13085v6.03516a8.1834,8.1834,0,0,1-.94482,4.01367,6.44526,6.44526,0,0,1-2.83448,2.666,10.2094,10.2094,0,0,1-4.6289.95215h-5.00977Z"/></g></g></svg>