<svg xmlns="http://www.w3.org/2000/svg" viewBox="0 0 168.42553 113.61702"><defs><style>.cls-1,.cls-2,.cls-3{fill:#fff;stroke:#1d1d1b;stroke-miterlimit:10;}.cls-1{stroke-width:4px;}.cls-2{stroke-width:1.20952px;}.cls-3{stroke-width:1.21px;}.cls-4{fill:#1d1d1b;}</style></defs><title>zqsd_clavier</title><g id="Calque_2" data-name="Calque 2"><g id="Calque_1-2" data-name="Calque 1"><rect class="cls-1" x="58.85106" y="2" width="50.7234" height="50.7234" rx="12"/><rect class="cls-2" x="62.59574" y="5.74468" width="43.23404" height="43.23404" rx="10.22819"/><rect class="cls-1" x="2" y="60.89362" width="50.7234" height="50.7234" rx="12"/><rect class="cls-2" x="5.74468" y="64.6383" width="43.23404" height="43.23404" rx="10.22819"/><rect class="cls-1" x="58.85106" y="60.89362" width="50.7234" height="50.7234" rx="12"/><rect class="cls-2" x="62.93617" y="64.6383" width="43.23404" height="43.23404" rx="10.22819"/><rect class="cls-1" x="115.70213" y="60.89362" width="50.7234" height="50.7234" rx="12"/><rect class="cls-3" x="119.44681" y="64.6383" width="43.23404" height="43.23404" rx="10.22819"/><path class="cls-4" d="M91.39424,17.17776,82.63447,31.00588h9.05274v3.86719H77.85908V31.26955l8.75977-13.82812H78.12276V13.57424H91.39424Z"/><path class="cls-4" d="M82.83174,95.00783l-1.45752-.30761a12.83527,12.83527,0,0,1-2.73926-.90039,10.54706,10.54706,0,0,1-2.29248-1.42872l1.86035-3.31054a8.991,8.991,0,0,0,2.8418,1.55957,10.16581,10.16581,0,0,0,3.31055.5498,5.81907,5.81907,0,0,0,3.04687-.667,2.09355,2.09355,0,0,0,1.084-1.88184v-.01464a1.85257,1.85257,0,0,0-.4834-1.34766,2.872,2.872,0,0,0-1.25977-.73242,15.26416,15.26416,0,0,0-1.99218-.42481.25685.25685,0,0,0-.08057-.01465.25681.25681,0,0,1-.08057-.01464l-.32226-.04395a19.88188,19.88188,0,0,1-3.54492-.8418,5.221,5.221,0,0,1-2.3877-1.77343,5.75835,5.75835,0,0,1-.98145-3.59571v-.01464a6.48879,6.48879,0,0,1,.92286-3.53028,5.82506,5.82506,0,0,1,2.68066-2.23437,10.56743,10.56743,0,0,1,4.24805-.76856,10.81566,10.81566,0,0,1,2.33642.26367,12.67908,12.67908,0,0,1,2.33643.76172,13.03442,13.03442,0,0,1,2.168,1.20117l-1.69922,3.39844a10.77519,10.77519,0,0,0-2.5708-1.31836,7.77953,7.77953,0,0,0-2.5708-.46875,5.57067,5.57067,0,0,0-2.85645.6084A1.895,1.895,0,0,0,81.3376,79.4219v.01464a1.98239,1.98239,0,0,0,.52734,1.457,3.13675,3.13675,0,0,0,1.30371.78418,20.72118,20.72118,0,0,0,2.18262.52734.9911.9911,0,0,0,.11719.02246.987.987,0,0,1,.11719.02148,1.46739,1.46739,0,0,1,.16845.03711c.05371.01368.10987.02637.16846.03614a17.80876,17.80876,0,0,1,3.37647.96,5.25044,5.25044,0,0,1,2.26318,1.8164,5.71763,5.71763,0,0,1,.9082,3.41993v.02929a6.21,6.21,0,0,1-.95215,3.48633,5.95188,5.95188,0,0,1-2.77588,2.21191,11.36328,11.36328,0,0,1-4.3872.76172Z"/><path class="cls-4" d="M23.10664,94.0342a6.78129,6.78129,0,0,1-2.73193-2.75391,8.50848,8.50848,0,0,1-.9668-4.124V81.12111a8.50848,8.50848,0,0,1,.9668-4.124,6.77547,6.77547,0,0,1,2.73193-2.75391,8.30539,8.30539,0,0,1,4.07959-.97363,8.30539,8.30539,0,0,1,4.07959.97363,6.77556,6.77556,0,0,1,2.73194,2.75391,8.50847,8.50847,0,0,1,.96679,4.124v6.03516a8.50847,8.50847,0,0,1-.96679,4.124,6.78137,6.78137,0,0,1-2.73194,2.75391,8.30539,8.30539,0,0,1-4.07959.97363A8.30539,8.30539,0,0,1,23.10664,94.0342Zm5.98389-3.50195a3.14775,3.14775,0,0,0,1.26709-1.31055,4.15616,4.15616,0,0,0,.44678-1.96289V81.01858a4.1562,4.1562,0,0,0-.44678-1.9629,3.14778,3.14778,0,0,0-1.26709-1.31054,4.15625,4.15625,0,0,0-3.80859,0,3.14772,3.14772,0,0,0-1.26709,1.31054,4.15609,4.15609,0,0,0-.44678,1.9629v6.24023a4.156,4.156,0,0,0,.44678,1.96289,3.14769,3.14769,0,0,0,1.26709,1.31055,4.15633,4.15633,0,0,0,3.80859,0Zm-2.53418-1.64746,2.13867-2.71,8.23242,6.24023-2.13867,2.72461Z"/><path class="cls-4" d="M133.56416,73.48928h4.01367V94.78811h-4.01367Zm2.02149,17.43164h5.1123a4.49032,4.49032,0,0,0,3.06152-.95215,3.39709,3.39709,0,0,0,1.084-2.69531V81.00393a3.39712,3.39712,0,0,0-1.084-2.69532,4.49037,4.49037,0,0,0-3.06152-.95214h-5.1123V73.48928h5.02441a10.53793,10.53793,0,0,1,4.54834.89355,6.333,6.333,0,0,1,2.86377,2.60743,8.18365,8.18365,0,0,1,.98145,4.13085v6.03516a8.1834,8.1834,0,0,1-.94483,4.01367,6.44524,6.44524,0,0,1-2.83447,2.666,10.20948,10.20948,0,0,1-4.62891.95215h-5.00976Z"/></g></g></svg>