<svg xmlns="http://www.w3.org/2000/svg" viewBox="0 0 265.93736 436.42737"><defs><style>.cls-1{fill:#c1181a;}.cls-2{fill:#f1d84d;}.cls-3{fill:#1d1d1b;}.cls-4{fill:#f3d750;}</style></defs><title>Blason</title><g id="Calque_2" data-name="Calque 2"><g id="V2"><g id="Calque_1-2" data-name="Calque 1"><path class="cls-1" d="M250.67113,213.58484a476.72763,476.72763,0,0,1,11.26562-98.8266c-17.42822-5.56823-43.48541-16.67608-71.01031-40.02588C162.30248,50.45026,143.75993,22.82782,132.96867,4c-10.62573,19.08716-30.08422,48.63709-62.1654,74.21253A217.96315,217.96315,0,0,1,4.0006,114.75824a478.48162,478.48162,0,0,1,11.25506,97.9187A479.09336,479.09336,0,0,1,4.0006,321.66907q64.48407,55.37915,128.96807,110.7583l128.96808-110.7583A477.653,477.653,0,0,1,250.67113,213.58484Z"/><path class="cls-2" d="M132.96886,434.42712a1.99885,1.99885,0,0,1-1.30322-.48242L2.69786,323.18689a1.99969,1.99969,0,0,1-.6499-1.9502A477.39887,477.39887,0,0,0,13.25548,212.70056,477.17356,477.17356,0,0,0,2.048,115.1908a2.00017,2.00017,0,0,1,1.31787-2.32911A215.98663,215.98663,0,0,0,69.55675,76.6488c24.6709-19.66845,45.418-44.43847,61.66455-73.62158a1.99971,1.99971,0,0,1,1.73486-1.02734h.0127a1.999,1.999,0,0,1,1.73486,1.00537c15.84863,27.65137,35.2002,51.27051,57.5166,70.20215,21.55469,18.28418,45.21582,31.623,70.3252,39.64551a2.0004,2.0004,0,0,1,1.34375,2.33935,477.74917,477.74917,0,0,0,0,206.04346,1.99935,1.99935,0,0,1-.64942,1.95117L134.27208,433.9447A1.99887,1.99887,0,0,1,132.96886,434.42712Zm0-28.01367L245.608,309.6781a361.971,361.971,0,0,1-.21973-182.08643c-18.98926-3.97656-46.35547-14.125-72.70508-39.68994-15.81347-15.34131-29.14453-34.08349-39.66845-55.7583-11.25245,24.23633-27.29,45.60694-46.5708,62.00879A155.333,155.333,0,0,1,20.5421,127.55554a358.62212,358.62212,0,0,1,11.5332,89.937,358.59115,358.59115,0,0,1-11.74511,92.1875Z"/><path class="cls-3" d="M132.96867,4c10.79126,18.82782,29.33381,46.45026,57.95777,70.73236,27.52487,23.34982,53.58206,34.4577,71.01028,40.02588a479.73483,479.73483,0,0,0,0,206.91089l-128.968,110.75824Q68.4846,377.04821,4.00061,321.66913a479.09444,479.09444,0,0,0,11.255-108.99219,478.48246,478.48246,0,0,0-11.255-97.9187A217.963,217.963,0,0,0,70.80324,78.21255C102.88442,52.63708,122.34291,23.08716,132.96867,4m0,405.04993,114.89362-98.67105a359.90487,359.90487,0,0,1,0-184.33039c-15.07324-2.898-44.62738-11.29187-73.78693-39.58212-21.229-20.59607-34.00924-43.74371-41.10669-59.08893-6.36462,14.55811-20.473,41.987-47.82055,65.25125-26.69394,22.70813-53.08888,30.46356-67.07308,33.4198a356.83308,356.83308,0,0,1,12.00032,91.44776A356.98433,356.98433,0,0,1,18.075,310.37888l114.89363,98.67105M132.9688,0l-.02506.00006a3.9999,3.9999,0,0,0-3.47,2.05432C113.355,31.00867,92.77647,55.57971,68.3098,75.08481A213.97444,213.97444,0,0,1,2.73143,110.96494a4,4,0,0,0-2.6362,4.65823,475.19733,475.19733,0,0,1,11.16063,97.0997A475.41092,475.41092,0,0,1,.09517,320.80449a4.00013,4.00013,0,0,0,1.29938,3.8992l88.21225,75.757,40.75583,35.00125a4,4,0,0,0,5.21209,0L264.5428,324.70369a4.00012,4.00012,0,0,0,1.29862-3.90263,475.73387,475.73387,0,0,1-.00006-205.17456,4,4,0,0,0-2.68726-4.6785c-24.85806-7.94193-48.28836-21.153-69.64005-39.26593C171.37438,52.9007,152.17156,29.4599,136.439,2.01093A3.99991,3.99991,0,0,0,132.9688,0ZM22.99031,129.036a157.63856,157.63856,0,0,0,64.7496-33.36056,183.56331,183.56331,0,0,0,45.31043-58.96378,197.391,197.391,0,0,0,38.23972,52.62558c25.76016,24.99228,52.50064,35.44348,71.64517,39.76709a364.026,364.026,0,0,0,.423,179.87l-110.38956,94.803L22.582,308.97678a360.7826,360.7826,0,0,0,11.49337-91.48841A360.91107,360.91107,0,0,0,22.99031,129.036Z"/></g><g id="Calque_2-2" data-name="Calque 2"><path class="cls-1" d="M136.2672,334.976c-.81446,0-1.61328-.00879-2.38965-.02637-25.04981-.57519-45.08691-10.67578-57.61231-19.18066a31.62547,31.62547,0,0,1-4.30517-12.333,28.54653,28.54653,0,0,1,2.5083-16.58984c3.67285-7.33594,9.19873-12.05176,15.981-13.63965a21.69351,21.69351,0,0,1,4.93994-.56934,24.76743,24.76743,0,0,1,12.56738,3.57618,2.5,2.5,0,0,0,3.72412-2.72852,45.50528,45.50528,0,0,1-.01758-21.60937,44.53618,44.53618,0,0,1,5.04932-12.19043c1.85205-2.23243,8.11084-8.80274,17.669-9.02051.16308-.00293.32421-.00488.48437-.00488,10.46191,0,17.20313,7.75878,18.77344,9.76953a47.44714,47.44714,0,0,1,3.04687,34.02734,2.5,2.5,0,0,0,3.93848,2.66016,21.9774,21.9774,0,0,1,12.18359-4.6045c.34278-.01757.68067-.02539,1.01465-.02539a22.30735,22.30735,0,0,1,14.77637,5.917c5.61035,4.88086,8.54,12.04687,8.707,21.29882a32.06908,32.06908,0,0,1-2.29785,12.59766c-6.626,15.58008-35.09277,22.67578-58.73828,22.67578Z"/><path class="cls-4" d="M134.86693,228.15918v5c9.01651,0,14.98413,6.54279,16.64206,8.60754a44.93831,44.93831,0,0,1,2.77389,32.0044,5,5,0,0,0,7.87757,5.31909,19.431,19.431,0,0,1,10.77127-4.0813c.30118-.015.59753-.02225.89081-.02225a19.84221,19.84221,0,0,1,13.13537,5.30252c5.05441,4.39747,7.69522,10.94422,7.84906,19.45841a29.45334,29.45334,0,0,1-2.0986,11.57379c-6.1824,14.53484-33.59094,21.15491-56.44064,21.15491-.79493,0-1.57517-.0089-2.33286-.02631-24.13812-.55429-43.532-10.19047-55.80395-18.43753a29.09281,29.09281,0,0,1-3.6901-10.88751,26.14008,26.14008,0,0,1,2.26341-15.15967c3.32721-6.64929,8.27733-10.91113,14.31524-12.32483a19.18812,19.18812,0,0,1,4.3699-.50363,22.60354,22.60354,0,0,1,11.2731,3.21512,5,5,0,0,0,7.44782-5.45786,42.98784,42.98784,0,0,1-.02042-20.41623,42.0122,42.0122,0,0,1,4.667-11.34011c1.80225-2.13019,7.36386-7.78489,15.68125-7.9737q.21564-.00485.4288-.00485v-5m0,0q-.26958,0-.54208.00616c-11.428.2594-18.45154,8.59131-19.65955,10.07325a47.06108,47.06108,0,0,0-5.42834,13.03515,47.909,47.909,0,0,0,.01464,22.80078,27.492,27.492,0,0,0-13.86215-3.93771,24.10874,24.10874,0,0,0-5.50992.63528C78.3674,273.46753,73.3393,283.51654,72.2327,285.728a30.95149,30.95149,0,0,0-2.75308,18.01849,33.995,33.995,0,0,0,4.9362,13.78723c11.15008,7.6435,31.97723,19.2851,59.40423,19.91492.795.01825,1.61359.02762,2.44767.02762,20.85778,0,53.23037-5.83338,61.04171-24.19786a34.58178,34.58178,0,0,0,2.49671-13.62114c-.05841-3.23261-.272-15.054-9.56635-23.14026-1.73761-1.51169-7.68814-6.53037-16.41726-6.53037-.3751,0-.75415.00922-1.13938.02842a24.33512,24.33512,0,0,0-13.59228,5.12829,49.94682,49.94682,0,0,0-3.31916-36.04138c-1.01361-1.33615-8.55648-10.94278-20.90475-10.94281Z"/><path class="cls-1" d="M201.16075,273.57751a26.46026,26.46026,0,0,0-6.43164-7.84863A27.56555,27.56555,0,0,0,177.235,259.559c-.0957,0-.19141,0-.28711.001a89.96791,89.96791,0,0,1,4.59766-32.29981,88.96668,88.96668,0,0,1,6.78808-15.23047c.03516-.06347.06836-.1289.09864-.19531a114.69645,114.69645,0,0,0,9.04687-30.626,119.07258,119.07258,0,0,0,1.22852-15.31494c.68847,3.40528,1.373,6.91162,2.01172,10.30713,4.39648,23.37207,5.37988,35.585,5.85351,41.45508.0957,1.19531.16992,2.1123.2461,2.78711.98046,8.74121-.02344,16.459-2.20313,31.709C203.60216,259.24744,202.44493,266.42126,201.16075,273.57751Z"/><path class="cls-4" d="M199.81227,142.29538h0m-.22958,41.62421a336.24214,336.24214,0,0,1,4.49743,33.9313c.09623,1.19354.17222,2.13626.2547,2.87134.94629,8.43362-.04467,16.0368-2.19366,31.07553-.72729,5.08939-1.52826,10.218-2.39691,15.35019a29.00905,29.00905,0,0,0-3.42026-3.34366,29.795,29.795,0,0,0-16.93732-6.66788,86.49043,86.49043,0,0,1,11.12461-43.88q.1078-.19134.19845-.39169a117.54643,117.54643,0,0,0,8.873-28.94513m-4.55725-42.39478-.01972.0015c-1.13409.17352,3.22583,17.3515,0,39.31915a112.15768,112.15768,0,0,1-8.85107,29.95746,91.30269,91.30269,0,0,0-6.9787,15.6596,93.18648,93.18648,0,0,0-4.59576,35.74469,22.46459,22.46459,0,0,1,2.65417-.14874,24.38813,24.38813,0,0,1,24.5799,21.59552c2.3695-12.1,4.06-22.63537,5.27661-31.14892,2.17785-15.24079,3.23413-23.23786,2.21277-32.3404-.43915-3.91351-.81586-16.18951-6.12769-44.4256-.46872-2.49148-6.47061-34.21426-8.15051-34.21426Z"/><path class="cls-1" d="M163.05333,232.08728a26.4971,26.4971,0,0,0-6.43164-7.84668,27.5701,27.5701,0,0,0-17.49512-6.1709c-.0957,0-.1914,0-.28711.001a90.01482,90.01482,0,0,1,4.59766-32.29883,88.96719,88.96719,0,0,1,6.78906-15.231c.03516-.064.06836-.12939.09863-.19629a114.74859,114.74859,0,0,0,9.04688-30.625,119.25761,119.25761,0,0,0,1.22852-15.32617c.68847,3.40918,1.373,6.91992,2.01074,10.31836,4.39551,23.36084,5.37988,35.57617,5.85351,41.44678.09668,1.20019.1709,2.12012.24707,2.79687.98047,8.73536-.02343,16.45411-2.20312,31.707C165.49376,217.76111,164.33653,224.934,163.05333,232.08728Z"/><path class="cls-4" d="M161.70464,100.80643h0m-.22956,41.62417a336.22367,336.22367,0,0,1,4.49744,33.9318c.09619,1.19329.17215,2.13586.25464,2.87088.94635,8.434-.04465,16.037-2.19367,31.07556-.72726,5.08935-1.5281,10.21728-2.39688,15.35016a29.00659,29.00659,0,0,0-3.42025-3.34366,29.79468,29.79468,0,0,0-16.93729-6.66788,86.4905,86.4905,0,0,1,11.1246-43.88q.1078-.19135.19846-.3917a117.54692,117.54692,0,0,0,8.873-28.94516m-4.55725-42.39474-.01971.00149c-1.1341.17353,3.22577,17.3515,0,39.31916A112.15743,112.15743,0,0,1,148.047,169.314a91.30284,91.30284,0,0,0-6.97869,15.65961,93.18532,93.18532,0,0,0-4.59577,35.74469,22.465,22.465,0,0,1,2.65418-.14874A24.38813,24.38813,0,0,1,163.70659,242.165c2.36951-12.1,4.06006-22.63538,5.27661-31.14893,2.17792-15.24078,3.23413-23.23785,2.21277-32.34039-.43909-3.91351-.8158-16.18951-6.12762-44.4256-.46872-2.49148-6.47068-34.21426-8.15052-34.21426Z"/><path class="cls-1" d="M64.77647,273.57849c-1.28369-7.15332-2.44042-14.32715-3.45556-21.42676-2.1792-15.25195-3.18311-22.97168-2.20264-31.709.07569-.67578.15039-1.59375.24707-2.792.47315-5.86914,1.45752-18.084,5.853-41.4502.63867-3.39453,1.32275-6.89941,2.01123-10.30371a119.19,119.19,0,0,0,1.22852,15.31152,114.70078,114.70078,0,0,0,9.04736,30.626c.02978.06641.063.13184.09912.19531a89.09025,89.09025,0,0,1,6.7876,15.23047,89.99538,89.99538,0,0,1,4.59717,32.29981c-.09522-.001-.19092-.001-.28663-.001a27.56472,27.56472,0,0,0-17.49414,6.16992A26.46862,26.46862,0,0,0,64.77647,273.57849Z"/><path class="cls-4" d="M74.91669,144.31125h0m-8.562,39.60834a117.54686,117.54686,0,0,0,8.873,28.94513q.09059.20013.19844.39169a86.566,86.566,0,0,1,6.597,14.8024,87.24817,87.24817,0,0,1,4.52762,29.0776,29.7947,29.7947,0,0,0-16.93729,6.66788,29.00263,29.00263,0,0,0-3.42024,3.34366c-.86878-5.13287-1.66965-10.26083-2.39691-15.35019-2.149-15.03848-3.14-22.64157-2.19365-31.07556.08247-.735.15844-1.67755.25462-2.87085a336.23163,336.23163,0,0,1,4.49745-33.93176m4.55725-42.39478c-1.6794,0-7.68178,31.72263-8.15053,34.21426-5.31181,28.23609-5.68852,40.51209-6.12761,44.4256-1.02136,9.10254.03486,17.09961,2.21276,32.3404,1.21657,8.51355,2.90712,19.04889,5.27662,31.14892A24.38813,24.38813,0,0,1,88.703,262.05847a22.45879,22.45879,0,0,1,2.65417.14874,93.1853,93.1853,0,0,0-4.59576-35.74469,91.30273,91.30273,0,0,0-6.97868-15.6596,112.15686,112.15686,0,0,1-8.85109-29.95746c-3.22577-21.96765,1.13408-39.14563,0-39.31915l-.01972-.0015Z"/><path class="cls-1" d="M102.8839,232.08923c-1.28418-7.15918-2.44141-14.334-3.45459-21.42675-2.17969-15.25293-3.18409-22.97168-2.20362-31.708.07569-.67578.15039-1.59375.24707-2.791.47315-5.86963,1.45752-18.084,5.85352-41.45068.63818-3.397,1.32227-6.90527,2.01123-10.312a119.13123,119.13123,0,0,0,1.228,15.31884,114.71591,114.71591,0,0,0,9.04736,30.625q.04469.10035.09912.19629a89.05117,89.05117,0,0,1,6.78809,15.231,89.99,89.99,0,0,1,4.59717,32.29883c-.09522-.001-.19092-.001-.28663-.001a27.567,27.567,0,0,0-17.49414,6.1709A26.4678,26.4678,0,0,0,102.8839,232.08923Z"/><path class="cls-4" d="M113.02431,102.82233h0m-8.562,39.60833a117.54688,117.54688,0,0,0,8.873,28.9451q.0906.20014.19846.3917a86.56639,86.56639,0,0,1,6.597,14.80236,87.249,87.249,0,0,1,4.52765,29.07764,29.79491,29.79491,0,0,0-16.93735,6.66788,29.00843,29.00843,0,0,0-3.42022,3.34363c-.86866-5.13224-1.66962-10.26075-2.39691-15.35013-2.149-15.03876-3.14-22.64194-2.19367-31.07553.08249-.73511.15848-1.67783.2547-2.87137a336.23907,336.23907,0,0,1,4.49744-33.93128m4.55725-42.3948c-1.67948,0-7.68176,31.72262-8.15051,34.21426-5.31183,28.23609-5.68854,40.51209-6.12769,44.4256-1.02136,9.10254.03491,17.09961,2.21277,32.34039,1.21661,8.51355,2.9071,19.04889,5.27661,31.14893a24.38813,24.38813,0,0,1,24.57989-21.59552,22.459,22.459,0,0,1,2.65418.14874,93.18666,93.18666,0,0,0-4.59576-35.74469,91.30359,91.30359,0,0,0-6.9787-15.65961,112.15743,112.15743,0,0,1-8.85108-29.95745c-3.22583-21.96766,1.1341-39.14563,0-39.31916l-.01971-.00149Z"/></g></g></g></svg>